<?xml version="1.0" encoding="utf-8" standalone="no"?>
<!DOCTYPE svg PUBLIC "-//W3C//DTD SVG 1.1//EN"
  "http://www.w3.org/Graphics/SVG/1.1/DTD/svg11.dtd">
<svg xmlns:xlink="http://www.w3.org/1999/xlink" width="460.8pt" height="345.6pt" viewBox="0 0 460.8 345.6" xmlns="http://www.w3.org/2000/svg" version="1.1">
 <metadata>
  <rdf:RDF xmlns:dc="http://purl.org/dc/elements/1.1/" xmlns:cc="http://creativecommons.org/ns#" xmlns:rdf="http://www.w3.org/1999/02/22-rdf-syntax-ns#">
   <cc:Work>
    <dc:type rdf:resource="http://purl.org/dc/dcmitype/StillImage"/>
    <dc:date>2021-11-30T22:26:48.184976</dc:date>
    <dc:format>image/svg+xml</dc:format>
    <dc:creator>
     <cc:Agent>
      <dc:title>Matplotlib v3.5.0, https://matplotlib.org/</dc:title>
     </cc:Agent>
    </dc:creator>
   </cc:Work>
  </rdf:RDF>
 </metadata>
 <defs>
  <style type="text/css">*{stroke-linejoin: round; stroke-linecap: butt}</style>
 </defs>
 <g id="figure_1">
  <g id="patch_1">
   <path d="M 0 345.6 
L 460.8 345.6 
L 460.8 0 
L 0 0 
z
" style="fill: #ffffff"/>
  </g>
  <g id="axes_1">
   <g id="patch_2">
    <path d="M 57.6 307.584 
L 414.72 307.584 
L 414.72 41.472 
L 57.6 41.472 
z
" style="fill: #ffffff"/>
   </g>
   <g id="matplotlib.axis_1">
    <g id="xtick_1">
     <g id="line2d_1">
      <path d="M 61.1712 307.584 
L 61.1712 41.472 
" clip-path="url(#pec44f5922b)" style="fill: none; stroke: #b0b0b0; stroke-width: 0.8; stroke-linecap: square"/>
     </g>
     <g id="line2d_2">
      <defs>
       <path id="m37afa220e2" d="M 0 0 
L 0 3.5 
" style="stroke: #000000; stroke-width: 0.8"/>
      </defs>
      <g>
       <use xlink:href="#m37afa220e2" x="61.1712" y="307.584" style="stroke: #000000; stroke-width: 0.8"/>
      </g>
     </g>
     <g id="text_1">
      <!-- 7660 -->
      <g transform="translate(48.4462 322.182437)scale(0.1 -0.1)">
       <defs>
        <path id="DejaVuSans-37" d="M 525 4666 
L 3525 4666 
L 3525 4397 
L 1831 0 
L 1172 0 
L 2766 4134 
L 525 4134 
L 525 4666 
z
" transform="scale(0.015625)"/>
        <path id="DejaVuSans-36" d="M 2113 2584 
Q 1688 2584 1439 2293 
Q 1191 2003 1191 1497 
Q 1191 994 1439 701 
Q 1688 409 2113 409 
Q 2538 409 2786 701 
Q 3034 994 3034 1497 
Q 3034 2003 2786 2293 
Q 2538 2584 2113 2584 
z
M 3366 4563 
L 3366 3988 
Q 3128 4100 2886 4159 
Q 2644 4219 2406 4219 
Q 1781 4219 1451 3797 
Q 1122 3375 1075 2522 
Q 1259 2794 1537 2939 
Q 1816 3084 2150 3084 
Q 2853 3084 3261 2657 
Q 3669 2231 3669 1497 
Q 3669 778 3244 343 
Q 2819 -91 2113 -91 
Q 1303 -91 875 529 
Q 447 1150 447 2328 
Q 447 3434 972 4092 
Q 1497 4750 2381 4750 
Q 2619 4750 2861 4703 
Q 3103 4656 3366 4563 
z
" transform="scale(0.015625)"/>
        <path id="DejaVuSans-30" d="M 2034 4250 
Q 1547 4250 1301 3770 
Q 1056 3291 1056 2328 
Q 1056 1369 1301 889 
Q 1547 409 2034 409 
Q 2525 409 2770 889 
Q 3016 1369 3016 2328 
Q 3016 3291 2770 3770 
Q 2525 4250 2034 4250 
z
M 2034 4750 
Q 2819 4750 3233 4129 
Q 3647 3509 3647 2328 
Q 3647 1150 3233 529 
Q 2819 -91 2034 -91 
Q 1250 -91 836 529 
Q 422 1150 422 2328 
Q 422 3509 836 4129 
Q 1250 4750 2034 4750 
z
" transform="scale(0.015625)"/>
       </defs>
       <use xlink:href="#DejaVuSans-37"/>
       <use xlink:href="#DejaVuSans-36" x="63.623047"/>
       <use xlink:href="#DejaVuSans-36" x="127.246094"/>
       <use xlink:href="#DejaVuSans-30" x="190.869141"/>
      </g>
     </g>
    </g>
    <g id="xtick_2">
     <g id="line2d_3">
      <path d="M 132.5952 307.584 
L 132.5952 41.472 
" clip-path="url(#pec44f5922b)" style="fill: none; stroke: #b0b0b0; stroke-width: 0.8; stroke-linecap: square"/>
     </g>
     <g id="line2d_4">
      <g>
       <use xlink:href="#m37afa220e2" x="132.5952" y="307.584" style="stroke: #000000; stroke-width: 0.8"/>
      </g>
     </g>
     <g id="text_2">
      <!-- 7680 -->
      <g transform="translate(119.8702 322.182437)scale(0.1 -0.1)">
       <defs>
        <path id="DejaVuSans-38" d="M 2034 2216 
Q 1584 2216 1326 1975 
Q 1069 1734 1069 1313 
Q 1069 891 1326 650 
Q 1584 409 2034 409 
Q 2484 409 2743 651 
Q 3003 894 3003 1313 
Q 3003 1734 2745 1975 
Q 2488 2216 2034 2216 
z
M 1403 2484 
Q 997 2584 770 2862 
Q 544 3141 544 3541 
Q 544 4100 942 4425 
Q 1341 4750 2034 4750 
Q 2731 4750 3128 4425 
Q 3525 4100 3525 3541 
Q 3525 3141 3298 2862 
Q 3072 2584 2669 2484 
Q 3125 2378 3379 2068 
Q 3634 1759 3634 1313 
Q 3634 634 3220 271 
Q 2806 -91 2034 -91 
Q 1263 -91 848 271 
Q 434 634 434 1313 
Q 434 1759 690 2068 
Q 947 2378 1403 2484 
z
M 1172 3481 
Q 1172 3119 1398 2916 
Q 1625 2713 2034 2713 
Q 2441 2713 2670 2916 
Q 2900 3119 2900 3481 
Q 2900 3844 2670 4047 
Q 2441 4250 2034 4250 
Q 1625 4250 1398 4047 
Q 1172 3844 1172 3481 
z
" transform="scale(0.015625)"/>
       </defs>
       <use xlink:href="#DejaVuSans-37"/>
       <use xlink:href="#DejaVuSans-36" x="63.623047"/>
       <use xlink:href="#DejaVuSans-38" x="127.246094"/>
       <use xlink:href="#DejaVuSans-30" x="190.869141"/>
      </g>
     </g>
    </g>
    <g id="xtick_3">
     <g id="line2d_5">
      <path d="M 204.0192 307.584 
L 204.0192 41.472 
" clip-path="url(#pec44f5922b)" style="fill: none; stroke: #b0b0b0; stroke-width: 0.8; stroke-linecap: square"/>
     </g>
     <g id="line2d_6">
      <g>
       <use xlink:href="#m37afa220e2" x="204.0192" y="307.584" style="stroke: #000000; stroke-width: 0.8"/>
      </g>
     </g>
     <g id="text_3">
      <!-- 7700 -->
      <g transform="translate(191.2942 322.182437)scale(0.1 -0.1)">
       <use xlink:href="#DejaVuSans-37"/>
       <use xlink:href="#DejaVuSans-37" x="63.623047"/>
       <use xlink:href="#DejaVuSans-30" x="127.246094"/>
       <use xlink:href="#DejaVuSans-30" x="190.869141"/>
      </g>
     </g>
    </g>
    <g id="xtick_4">
     <g id="line2d_7">
      <path d="M 275.4432 307.584 
L 275.4432 41.472 
" clip-path="url(#pec44f5922b)" style="fill: none; stroke: #b0b0b0; stroke-width: 0.8; stroke-linecap: square"/>
     </g>
     <g id="line2d_8">
      <g>
       <use xlink:href="#m37afa220e2" x="275.4432" y="307.584" style="stroke: #000000; stroke-width: 0.8"/>
      </g>
     </g>
     <g id="text_4">
      <!-- 7720 -->
      <g transform="translate(262.7182 322.182437)scale(0.1 -0.1)">
       <defs>
        <path id="DejaVuSans-32" d="M 1228 531 
L 3431 531 
L 3431 0 
L 469 0 
L 469 531 
Q 828 903 1448 1529 
Q 2069 2156 2228 2338 
Q 2531 2678 2651 2914 
Q 2772 3150 2772 3378 
Q 2772 3750 2511 3984 
Q 2250 4219 1831 4219 
Q 1534 4219 1204 4116 
Q 875 4013 500 3803 
L 500 4441 
Q 881 4594 1212 4672 
Q 1544 4750 1819 4750 
Q 2544 4750 2975 4387 
Q 3406 4025 3406 3419 
Q 3406 3131 3298 2873 
Q 3191 2616 2906 2266 
Q 2828 2175 2409 1742 
Q 1991 1309 1228 531 
z
" transform="scale(0.015625)"/>
       </defs>
       <use xlink:href="#DejaVuSans-37"/>
       <use xlink:href="#DejaVuSans-37" x="63.623047"/>
       <use xlink:href="#DejaVuSans-32" x="127.246094"/>
       <use xlink:href="#DejaVuSans-30" x="190.869141"/>
      </g>
     </g>
    </g>
    <g id="xtick_5">
     <g id="line2d_9">
      <path d="M 346.8672 307.584 
L 346.8672 41.472 
" clip-path="url(#pec44f5922b)" style="fill: none; stroke: #b0b0b0; stroke-width: 0.8; stroke-linecap: square"/>
     </g>
     <g id="line2d_10">
      <g>
       <use xlink:href="#m37afa220e2" x="346.8672" y="307.584" style="stroke: #000000; stroke-width: 0.8"/>
      </g>
     </g>
     <g id="text_5">
      <!-- 7740 -->
      <g transform="translate(334.1422 322.182437)scale(0.1 -0.1)">
       <defs>
        <path id="DejaVuSans-34" d="M 2419 4116 
L 825 1625 
L 2419 1625 
L 2419 4116 
z
M 2253 4666 
L 3047 4666 
L 3047 1625 
L 3713 1625 
L 3713 1100 
L 3047 1100 
L 3047 0 
L 2419 0 
L 2419 1100 
L 313 1100 
L 313 1709 
L 2253 4666 
z
" transform="scale(0.015625)"/>
       </defs>
       <use xlink:href="#DejaVuSans-37"/>
       <use xlink:href="#DejaVuSans-37" x="63.623047"/>
       <use xlink:href="#DejaVuSans-34" x="127.246094"/>
       <use xlink:href="#DejaVuSans-30" x="190.869141"/>
      </g>
     </g>
    </g>
    <g id="text_6">
     <!-- Energy (eV) -->
     <g transform="translate(206.66625 335.860562)scale(0.1 -0.1)">
      <defs>
       <path id="DejaVuSans-45" d="M 628 4666 
L 3578 4666 
L 3578 4134 
L 1259 4134 
L 1259 2753 
L 3481 2753 
L 3481 2222 
L 1259 2222 
L 1259 531 
L 3634 531 
L 3634 0 
L 628 0 
L 628 4666 
z
" transform="scale(0.015625)"/>
       <path id="DejaVuSans-6e" d="M 3513 2113 
L 3513 0 
L 2938 0 
L 2938 2094 
Q 2938 2591 2744 2837 
Q 2550 3084 2163 3084 
Q 1697 3084 1428 2787 
Q 1159 2491 1159 1978 
L 1159 0 
L 581 0 
L 581 3500 
L 1159 3500 
L 1159 2956 
Q 1366 3272 1645 3428 
Q 1925 3584 2291 3584 
Q 2894 3584 3203 3211 
Q 3513 2838 3513 2113 
z
" transform="scale(0.015625)"/>
       <path id="DejaVuSans-65" d="M 3597 1894 
L 3597 1613 
L 953 1613 
Q 991 1019 1311 708 
Q 1631 397 2203 397 
Q 2534 397 2845 478 
Q 3156 559 3463 722 
L 3463 178 
Q 3153 47 2828 -22 
Q 2503 -91 2169 -91 
Q 1331 -91 842 396 
Q 353 884 353 1716 
Q 353 2575 817 3079 
Q 1281 3584 2069 3584 
Q 2775 3584 3186 3129 
Q 3597 2675 3597 1894 
z
M 3022 2063 
Q 3016 2534 2758 2815 
Q 2500 3097 2075 3097 
Q 1594 3097 1305 2825 
Q 1016 2553 972 2059 
L 3022 2063 
z
" transform="scale(0.015625)"/>
       <path id="DejaVuSans-72" d="M 2631 2963 
Q 2534 3019 2420 3045 
Q 2306 3072 2169 3072 
Q 1681 3072 1420 2755 
Q 1159 2438 1159 1844 
L 1159 0 
L 581 0 
L 581 3500 
L 1159 3500 
L 1159 2956 
Q 1341 3275 1631 3429 
Q 1922 3584 2338 3584 
Q 2397 3584 2469 3576 
Q 2541 3569 2628 3553 
L 2631 2963 
z
" transform="scale(0.015625)"/>
       <path id="DejaVuSans-67" d="M 2906 1791 
Q 2906 2416 2648 2759 
Q 2391 3103 1925 3103 
Q 1463 3103 1205 2759 
Q 947 2416 947 1791 
Q 947 1169 1205 825 
Q 1463 481 1925 481 
Q 2391 481 2648 825 
Q 2906 1169 2906 1791 
z
M 3481 434 
Q 3481 -459 3084 -895 
Q 2688 -1331 1869 -1331 
Q 1566 -1331 1297 -1286 
Q 1028 -1241 775 -1147 
L 775 -588 
Q 1028 -725 1275 -790 
Q 1522 -856 1778 -856 
Q 2344 -856 2625 -561 
Q 2906 -266 2906 331 
L 2906 616 
Q 2728 306 2450 153 
Q 2172 0 1784 0 
Q 1141 0 747 490 
Q 353 981 353 1791 
Q 353 2603 747 3093 
Q 1141 3584 1784 3584 
Q 2172 3584 2450 3431 
Q 2728 3278 2906 2969 
L 2906 3500 
L 3481 3500 
L 3481 434 
z
" transform="scale(0.015625)"/>
       <path id="DejaVuSans-79" d="M 2059 -325 
Q 1816 -950 1584 -1140 
Q 1353 -1331 966 -1331 
L 506 -1331 
L 506 -850 
L 844 -850 
Q 1081 -850 1212 -737 
Q 1344 -625 1503 -206 
L 1606 56 
L 191 3500 
L 800 3500 
L 1894 763 
L 2988 3500 
L 3597 3500 
L 2059 -325 
z
" transform="scale(0.015625)"/>
       <path id="DejaVuSans-20" transform="scale(0.015625)"/>
       <path id="DejaVuSans-28" d="M 1984 4856 
Q 1566 4138 1362 3434 
Q 1159 2731 1159 2009 
Q 1159 1288 1364 580 
Q 1569 -128 1984 -844 
L 1484 -844 
Q 1016 -109 783 600 
Q 550 1309 550 2009 
Q 550 2706 781 3412 
Q 1013 4119 1484 4856 
L 1984 4856 
z
" transform="scale(0.015625)"/>
       <path id="DejaVuSans-56" d="M 1831 0 
L 50 4666 
L 709 4666 
L 2188 738 
L 3669 4666 
L 4325 4666 
L 2547 0 
L 1831 0 
z
" transform="scale(0.015625)"/>
       <path id="DejaVuSans-29" d="M 513 4856 
L 1013 4856 
Q 1481 4119 1714 3412 
Q 1947 2706 1947 2009 
Q 1947 1309 1714 600 
Q 1481 -109 1013 -844 
L 513 -844 
Q 928 -128 1133 580 
Q 1338 1288 1338 2009 
Q 1338 2731 1133 3434 
Q 928 4138 513 4856 
z
" transform="scale(0.015625)"/>
      </defs>
      <use xlink:href="#DejaVuSans-45"/>
      <use xlink:href="#DejaVuSans-6e" x="63.183594"/>
      <use xlink:href="#DejaVuSans-65" x="126.5625"/>
      <use xlink:href="#DejaVuSans-72" x="188.085938"/>
      <use xlink:href="#DejaVuSans-67" x="227.449219"/>
      <use xlink:href="#DejaVuSans-79" x="290.925781"/>
      <use xlink:href="#DejaVuSans-20" x="350.105469"/>
      <use xlink:href="#DejaVuSans-28" x="381.892578"/>
      <use xlink:href="#DejaVuSans-65" x="420.90625"/>
      <use xlink:href="#DejaVuSans-56" x="482.429688"/>
      <use xlink:href="#DejaVuSans-29" x="550.837891"/>
     </g>
    </g>
   </g>
   <g id="matplotlib.axis_2">
    <g id="ytick_1">
     <g id="line2d_11">
      <path d="M 57.6 298.334758 
L 414.72 298.334758 
" clip-path="url(#pec44f5922b)" style="fill: none; stroke: #b0b0b0; stroke-width: 0.8; stroke-linecap: square"/>
     </g>
     <g id="line2d_12">
      <defs>
       <path id="m89a5a5c9de" d="M 0 0 
L -3.5 0 
" style="stroke: #000000; stroke-width: 0.8"/>
      </defs>
      <g>
       <use xlink:href="#m89a5a5c9de" x="57.6" y="298.334758" style="stroke: #000000; stroke-width: 0.8"/>
      </g>
     </g>
     <g id="text_7">
      <!-- −0.05 -->
      <g transform="translate(19.954687 302.133977)scale(0.1 -0.1)">
       <defs>
        <path id="DejaVuSans-2212" d="M 678 2272 
L 4684 2272 
L 4684 1741 
L 678 1741 
L 678 2272 
z
" transform="scale(0.015625)"/>
        <path id="DejaVuSans-2e" d="M 684 794 
L 1344 794 
L 1344 0 
L 684 0 
L 684 794 
z
" transform="scale(0.015625)"/>
        <path id="DejaVuSans-35" d="M 691 4666 
L 3169 4666 
L 3169 4134 
L 1269 4134 
L 1269 2991 
Q 1406 3038 1543 3061 
Q 1681 3084 1819 3084 
Q 2600 3084 3056 2656 
Q 3513 2228 3513 1497 
Q 3513 744 3044 326 
Q 2575 -91 1722 -91 
Q 1428 -91 1123 -41 
Q 819 9 494 109 
L 494 744 
Q 775 591 1075 516 
Q 1375 441 1709 441 
Q 2250 441 2565 725 
Q 2881 1009 2881 1497 
Q 2881 1984 2565 2268 
Q 2250 2553 1709 2553 
Q 1456 2553 1204 2497 
Q 953 2441 691 2322 
L 691 4666 
z
" transform="scale(0.015625)"/>
       </defs>
       <use xlink:href="#DejaVuSans-2212"/>
       <use xlink:href="#DejaVuSans-30" x="83.789062"/>
       <use xlink:href="#DejaVuSans-2e" x="147.412109"/>
       <use xlink:href="#DejaVuSans-30" x="179.199219"/>
       <use xlink:href="#DejaVuSans-35" x="242.822266"/>
      </g>
     </g>
    </g>
    <g id="ytick_2">
     <g id="line2d_13">
      <path d="M 57.6 259.950312 
L 414.72 259.950312 
" clip-path="url(#pec44f5922b)" style="fill: none; stroke: #b0b0b0; stroke-width: 0.8; stroke-linecap: square"/>
     </g>
     <g id="line2d_14">
      <g>
       <use xlink:href="#m89a5a5c9de" x="57.6" y="259.950312" style="stroke: #000000; stroke-width: 0.8"/>
      </g>
     </g>
     <g id="text_8">
      <!-- 0.00 -->
      <g transform="translate(28.334375 263.74953)scale(0.1 -0.1)">
       <use xlink:href="#DejaVuSans-30"/>
       <use xlink:href="#DejaVuSans-2e" x="63.623047"/>
       <use xlink:href="#DejaVuSans-30" x="95.410156"/>
       <use xlink:href="#DejaVuSans-30" x="159.033203"/>
      </g>
     </g>
    </g>
    <g id="ytick_3">
     <g id="line2d_15">
      <path d="M 57.6 221.565866 
L 414.72 221.565866 
" clip-path="url(#pec44f5922b)" style="fill: none; stroke: #b0b0b0; stroke-width: 0.8; stroke-linecap: square"/>
     </g>
     <g id="line2d_16">
      <g>
       <use xlink:href="#m89a5a5c9de" x="57.6" y="221.565866" style="stroke: #000000; stroke-width: 0.8"/>
      </g>
     </g>
     <g id="text_9">
      <!-- 0.05 -->
      <g transform="translate(28.334375 225.365084)scale(0.1 -0.1)">
       <use xlink:href="#DejaVuSans-30"/>
       <use xlink:href="#DejaVuSans-2e" x="63.623047"/>
       <use xlink:href="#DejaVuSans-30" x="95.410156"/>
       <use xlink:href="#DejaVuSans-35" x="159.033203"/>
      </g>
     </g>
    </g>
    <g id="ytick_4">
     <g id="line2d_17">
      <path d="M 57.6 183.181419 
L 414.72 183.181419 
" clip-path="url(#pec44f5922b)" style="fill: none; stroke: #b0b0b0; stroke-width: 0.8; stroke-linecap: square"/>
     </g>
     <g id="line2d_18">
      <g>
       <use xlink:href="#m89a5a5c9de" x="57.6" y="183.181419" style="stroke: #000000; stroke-width: 0.8"/>
      </g>
     </g>
     <g id="text_10">
      <!-- 0.10 -->
      <g transform="translate(28.334375 186.980638)scale(0.1 -0.1)">
       <defs>
        <path id="DejaVuSans-31" d="M 794 531 
L 1825 531 
L 1825 4091 
L 703 3866 
L 703 4441 
L 1819 4666 
L 2450 4666 
L 2450 531 
L 3481 531 
L 3481 0 
L 794 0 
L 794 531 
z
" transform="scale(0.015625)"/>
       </defs>
       <use xlink:href="#DejaVuSans-30"/>
       <use xlink:href="#DejaVuSans-2e" x="63.623047"/>
       <use xlink:href="#DejaVuSans-31" x="95.410156"/>
       <use xlink:href="#DejaVuSans-30" x="159.033203"/>
      </g>
     </g>
    </g>
    <g id="ytick_5">
     <g id="line2d_19">
      <path d="M 57.6 144.796973 
L 414.72 144.796973 
" clip-path="url(#pec44f5922b)" style="fill: none; stroke: #b0b0b0; stroke-width: 0.8; stroke-linecap: square"/>
     </g>
     <g id="line2d_20">
      <g>
       <use xlink:href="#m89a5a5c9de" x="57.6" y="144.796973" style="stroke: #000000; stroke-width: 0.8"/>
      </g>
     </g>
     <g id="text_11">
      <!-- 0.15 -->
      <g transform="translate(28.334375 148.596192)scale(0.1 -0.1)">
       <use xlink:href="#DejaVuSans-30"/>
       <use xlink:href="#DejaVuSans-2e" x="63.623047"/>
       <use xlink:href="#DejaVuSans-31" x="95.410156"/>
       <use xlink:href="#DejaVuSans-35" x="159.033203"/>
      </g>
     </g>
    </g>
    <g id="ytick_6">
     <g id="line2d_21">
      <path d="M 57.6 106.412527 
L 414.72 106.412527 
" clip-path="url(#pec44f5922b)" style="fill: none; stroke: #b0b0b0; stroke-width: 0.8; stroke-linecap: square"/>
     </g>
     <g id="line2d_22">
      <g>
       <use xlink:href="#m89a5a5c9de" x="57.6" y="106.412527" style="stroke: #000000; stroke-width: 0.8"/>
      </g>
     </g>
     <g id="text_12">
      <!-- 0.20 -->
      <g transform="translate(28.334375 110.211746)scale(0.1 -0.1)">
       <use xlink:href="#DejaVuSans-30"/>
       <use xlink:href="#DejaVuSans-2e" x="63.623047"/>
       <use xlink:href="#DejaVuSans-32" x="95.410156"/>
       <use xlink:href="#DejaVuSans-30" x="159.033203"/>
      </g>
     </g>
    </g>
    <g id="ytick_7">
     <g id="line2d_23">
      <path d="M 57.6 68.028081 
L 414.72 68.028081 
" clip-path="url(#pec44f5922b)" style="fill: none; stroke: #b0b0b0; stroke-width: 0.8; stroke-linecap: square"/>
     </g>
     <g id="line2d_24">
      <g>
       <use xlink:href="#m89a5a5c9de" x="57.6" y="68.028081" style="stroke: #000000; stroke-width: 0.8"/>
      </g>
     </g>
     <g id="text_13">
      <!-- 0.25 -->
      <g transform="translate(28.334375 71.8273)scale(0.1 -0.1)">
       <use xlink:href="#DejaVuSans-30"/>
       <use xlink:href="#DejaVuSans-2e" x="63.623047"/>
       <use xlink:href="#DejaVuSans-32" x="95.410156"/>
       <use xlink:href="#DejaVuSans-35" x="159.033203"/>
      </g>
     </g>
    </g>
    <g id="text_14">
     <!-- Absorption -->
     <g transform="translate(13.875 201.593625)rotate(-90)scale(0.1 -0.1)">
      <defs>
       <path id="DejaVuSans-41" d="M 2188 4044 
L 1331 1722 
L 3047 1722 
L 2188 4044 
z
M 1831 4666 
L 2547 4666 
L 4325 0 
L 3669 0 
L 3244 1197 
L 1141 1197 
L 716 0 
L 50 0 
L 1831 4666 
z
" transform="scale(0.015625)"/>
       <path id="DejaVuSans-62" d="M 3116 1747 
Q 3116 2381 2855 2742 
Q 2594 3103 2138 3103 
Q 1681 3103 1420 2742 
Q 1159 2381 1159 1747 
Q 1159 1113 1420 752 
Q 1681 391 2138 391 
Q 2594 391 2855 752 
Q 3116 1113 3116 1747 
z
M 1159 2969 
Q 1341 3281 1617 3432 
Q 1894 3584 2278 3584 
Q 2916 3584 3314 3078 
Q 3713 2572 3713 1747 
Q 3713 922 3314 415 
Q 2916 -91 2278 -91 
Q 1894 -91 1617 61 
Q 1341 213 1159 525 
L 1159 0 
L 581 0 
L 581 4863 
L 1159 4863 
L 1159 2969 
z
" transform="scale(0.015625)"/>
       <path id="DejaVuSans-73" d="M 2834 3397 
L 2834 2853 
Q 2591 2978 2328 3040 
Q 2066 3103 1784 3103 
Q 1356 3103 1142 2972 
Q 928 2841 928 2578 
Q 928 2378 1081 2264 
Q 1234 2150 1697 2047 
L 1894 2003 
Q 2506 1872 2764 1633 
Q 3022 1394 3022 966 
Q 3022 478 2636 193 
Q 2250 -91 1575 -91 
Q 1294 -91 989 -36 
Q 684 19 347 128 
L 347 722 
Q 666 556 975 473 
Q 1284 391 1588 391 
Q 1994 391 2212 530 
Q 2431 669 2431 922 
Q 2431 1156 2273 1281 
Q 2116 1406 1581 1522 
L 1381 1569 
Q 847 1681 609 1914 
Q 372 2147 372 2553 
Q 372 3047 722 3315 
Q 1072 3584 1716 3584 
Q 2034 3584 2315 3537 
Q 2597 3491 2834 3397 
z
" transform="scale(0.015625)"/>
       <path id="DejaVuSans-6f" d="M 1959 3097 
Q 1497 3097 1228 2736 
Q 959 2375 959 1747 
Q 959 1119 1226 758 
Q 1494 397 1959 397 
Q 2419 397 2687 759 
Q 2956 1122 2956 1747 
Q 2956 2369 2687 2733 
Q 2419 3097 1959 3097 
z
M 1959 3584 
Q 2709 3584 3137 3096 
Q 3566 2609 3566 1747 
Q 3566 888 3137 398 
Q 2709 -91 1959 -91 
Q 1206 -91 779 398 
Q 353 888 353 1747 
Q 353 2609 779 3096 
Q 1206 3584 1959 3584 
z
" transform="scale(0.015625)"/>
       <path id="DejaVuSans-70" d="M 1159 525 
L 1159 -1331 
L 581 -1331 
L 581 3500 
L 1159 3500 
L 1159 2969 
Q 1341 3281 1617 3432 
Q 1894 3584 2278 3584 
Q 2916 3584 3314 3078 
Q 3713 2572 3713 1747 
Q 3713 922 3314 415 
Q 2916 -91 2278 -91 
Q 1894 -91 1617 61 
Q 1341 213 1159 525 
z
M 3116 1747 
Q 3116 2381 2855 2742 
Q 2594 3103 2138 3103 
Q 1681 3103 1420 2742 
Q 1159 2381 1159 1747 
Q 1159 1113 1420 752 
Q 1681 391 2138 391 
Q 2594 391 2855 752 
Q 3116 1113 3116 1747 
z
" transform="scale(0.015625)"/>
       <path id="DejaVuSans-74" d="M 1172 4494 
L 1172 3500 
L 2356 3500 
L 2356 3053 
L 1172 3053 
L 1172 1153 
Q 1172 725 1289 603 
Q 1406 481 1766 481 
L 2356 481 
L 2356 0 
L 1766 0 
Q 1100 0 847 248 
Q 594 497 594 1153 
L 594 3053 
L 172 3053 
L 172 3500 
L 594 3500 
L 594 4494 
L 1172 4494 
z
" transform="scale(0.015625)"/>
       <path id="DejaVuSans-69" d="M 603 3500 
L 1178 3500 
L 1178 0 
L 603 0 
L 603 3500 
z
M 603 4863 
L 1178 4863 
L 1178 4134 
L 603 4134 
L 603 4863 
z
" transform="scale(0.015625)"/>
      </defs>
      <use xlink:href="#DejaVuSans-41"/>
      <use xlink:href="#DejaVuSans-62" x="68.408203"/>
      <use xlink:href="#DejaVuSans-73" x="131.884766"/>
      <use xlink:href="#DejaVuSans-6f" x="183.984375"/>
      <use xlink:href="#DejaVuSans-72" x="245.166016"/>
      <use xlink:href="#DejaVuSans-70" x="286.279297"/>
      <use xlink:href="#DejaVuSans-74" x="349.755859"/>
      <use xlink:href="#DejaVuSans-69" x="388.964844"/>
      <use xlink:href="#DejaVuSans-6f" x="416.748047"/>
      <use xlink:href="#DejaVuSans-6e" x="477.929688"/>
     </g>
    </g>
   </g>
   <g id="line2d_25">
    <path d="M -1 260.350264 
L 93.312 260.225761 
L 129.024 260.135629 
L 132.599128 259.748602 
L 139.741885 259.764238 
L 146.877143 259.682578 
L 150.446557 259.758521 
L 154.016686 259.720066 
L 157.587529 259.487074 
L 175.446029 259.270201 
L 179.022943 259.096514 
L 182.5895 259.131058 
L 186.157129 258.959226 
L 189.736543 258.635006 
L 196.8768 258.210702 
L 200.448357 257.995468 
L 204.020628 257.599221 
L 207.593971 256.925363 
L 211.157315 256.029816 
L 214.732443 254.591085 
L 218.297572 252.289731 
L 221.874843 248.019553 
L 225.442115 237.518894 
L 229.020814 201.338758 
L 232.589871 110.671404 
L 236.16 53.568 
L 239.730843 84.445592 
L 243.3024 140.422628 
L 246.875386 200.881126 
L 250.449085 241.7986 
L 254.012786 224.698386 
L 257.588271 165.576102 
L 261.153757 126.888472 
L 264.731028 116.450467 
L 268.298657 118.948258 
L 271.867 136.554635 
L 275.447128 155.931771 
L 279.017614 156.992326 
L 282.588814 141.752273 
L 286.160728 142.85221 
L 289.722643 168.383448 
L 293.2967 197.081834 
L 296.871828 219.497019 
L 300.4366 233.523804 
L 304.013157 243.482323 
L 307.580072 251.188895 
L 311.158771 248.629833 
L 314.727471 239.534168 
L 318.296886 235.169257 
L 321.867372 245.032683 
L 325.438929 266.638469 
L 329.0112 283.186032 
L 332.584543 288.490678 
L 336.147529 284.960491 
L 339.722657 276.57602 
L 348.709225 272.895267 
L 354.255299 268.728557 
L 359.926007 265.918729 
L 365.743492 258.641747 
L 371.685969 247.238226 
L 377.764865 236.465944 
L 383.980182 229.577345 
L 390.320847 227.264779 
L 396.79829 229.97156 
L 403.412509 239.325403 
L 410.16422 253.117073 
L 417.041994 266.840035 
L 424.046189 279.690117 
L 431.199302 290.207041 
L 438.479194 295.488 
L 445.88622 293.515964 
L 453.431808 283.583925 
L 461.115602 272.115854 
L 461.8 271.604039 
L 461.8 271.604039 
" clip-path="url(#pec44f5922b)" style="fill: none; stroke: #1e90ff; stroke-width: 1.5; stroke-linecap: square"/>
   </g>
   <g id="line2d_26">
    <path d="M 10.213554 259.759553 
L 25.351741 259.808692 
L 29.136287 260.096735 
L 40.489927 260.158658 
L 44.274474 260.446701 
L 48.059021 260.467342 
L 51.843567 260.655109 
L 55.628114 260.642324 
L 63.197207 261.017858 
L 66.981754 260.771098 
L 70.766301 259.521582 
L 74.550847 259.141121 
L 78.200232 259.620621 
L 79.596909 261.096161 
L 83.381456 260.047196 
L 87.166003 259.56646 
L 90.950549 259.219424 
L 94.735096 259.641167 
L 98.835022 259.426766 
L 101.358053 258.68289 
L 102.349243 261.000204 
L 105.773357 259.620592 
L 107.485414 257.286984 
L 110.582885 260.682308 
L 114.288587 259.892655 
L 117.820831 260.011081 
L 121.85768 259.014744 
L 125.642227 259.737314 
L 129.426774 259.65768 
L 137.311246 259.809314 
L 144.56496 259.506268 
L 148.349507 258.992106 
L 152.134054 259.6144 
L 155.9186 258.53201 
L 159.703147 259.388281 
L 163.487694 259.843449 
L 171.056787 259.015677 
L 174.841333 259.170018 
L 182.410427 258.943899 
L 186.510352 259.548415 
L 189.97952 258.015851 
L 193.764067 257.835941 
L 197.548613 257.188078 
L 200.176771 258.995302 
L 203.856191 257.066496 
L 207.640738 256.652609 
L 211.650555 255.93236 
L 215.066477 256.056259 
L 217.102104 252.342226 
L 220.851609 251.326804 
L 222.463545 248.125912 
L 223.725061 244.932888 
L 225.437118 241.36016 
L 226.405782 237.653855 
L 227.299355 233.15515 
L 226.87885 235.696884 
L 228.392669 228.491986 
L 228.140365 230.979672 
L 229.221664 223.154526 
L 228.455744 225.764278 
L 229.852422 208.970568 
L 229.71726 212.323093 
L 229.906487 214.969728 
L 229.401881 217.204235 
L 229.401881 219.610848 
L 230.48318 198.711681 
L 230.348018 202.092856 
L 230.348018 204.449332 
L 229.401881 205.705972 
L 231.113938 188.699186 
L 230.978775 191.812482 
L 230.978775 194.469784 
L 230.032639 195.676286 
L 231.784744 166.434474 
L 231.609533 177.320534 
L 231.294154 179.494236 
L 231.294154 181.90085 
L 231.609533 184.189409 
L 230.663397 185.646601 
L 232.375453 142.436381 
L 232.55567 146.404392 
L 232.645778 151.345666 
L 232.240291 154.555854 
L 232.240291 161.775693 
L 231.609533 163.181682 
L 233.060276 127.069561 
L 232.871049 133.295307 
L 232.871049 135.651782 
L 232.55567 138.042748 
L 231.924912 139.114485 
L 232.55567 148.471405 
L 233.712059 105.415863 
L 233.501807 108.324564 
L 233.501807 122.563692 
L 232.871049 124.270507 
L 234.342817 83.546978 
L 233.817185 89.37142 
L 234.132564 91.977519 
L 233.817185 94.184646 
L 234.132564 96.590194 
L 234.132564 101.253007 
L 233.186428 102.609923 
L 234.898484 68.682354 
L 234.447943 72.255596 
L 234.447943 79.475435 
L 233.817185 80.547172 
L 236.277141 63.171137 
L 236.024838 66.150173 
L 236.16 53.568 
L 236.340217 56.99395 
L 236.340217 59.360453 
L 236.655595 60.883576 
L 238.484793 69.120047 
L 238.547869 72.338679 
L 238.547869 63.865395 
L 238.547869 66.292064 
L 238.863248 75.315798 
L 238.705558 78.525148 
L 239.494005 81.3302 
L 239.494005 84.137915 
L 239.336316 86.896026 
L 240.250915 90.071671 
L 240.124763 93.227434 
L 240.503218 100.419255 
L 240.755521 98.172231 
L 240.755521 103.252859 
L 241.0709 105.892383 
L 240.881672 108.600462 
L 241.386279 111.306197 
L 241.386279 114.080487 
L 241.228589 116.721609 
L 242.143188 119.666621 
L 242.143188 123.035879 
L 242.963173 126.462533 
L 242.963173 131.857358 
L 244.035461 139.795559 
L 243.75162 143.085556 
L 244.329815 146.559822 
L 244.540068 149.767929 
L 244.540068 154.915408 
L 245.170825 157.654142 
L 245.170825 160.060755 
L 245.486204 162.733704 
L 245.486204 172.310019 
L 246.116962 174.864915 
L 246.116962 184.491368 
L 245.927735 187.159337 
L 246.432341 189.470655 
L 246.74772 192.110179 
L 246.74772 194.516792 
L 246.274651 197.025279 
L 246.957972 202.457905 
L 246.74772 199.229743 
L 247.063099 205.646313 
L 246.905409 208.203872 
L 247.693856 211.540384 
L 248.324614 214.706961 
L 249.333827 217.872259 
L 249.712281 221.36057 
L 250.216888 223.818959 
L 250.216888 226.225572 
L 250.343039 229.099712 
L 250.667429 232.794486 
L 250.532266 236.118361 
L 251.478403 239.223707 
L 251.478403 241.997997 
L 252.469594 244.13386 
L 253.118373 247.380597 
L 253.055298 249.145659 
L 255.082733 231.891416 
L 254.632192 235.168606 
L 254.789881 237.858801 
L 254.316813 240.116599 
L 255.578329 226.474863 
L 254.632192 228.884672 
L 256.344249 215.527915 
L 256.209086 218.85179 
L 255.578329 223.266045 
L 256.839844 209.256632 
L 256.209086 212.233604 
L 257.605764 195.239343 
L 257.470602 200.998481 
L 257.155223 203.47301 
L 257.155223 205.879623 
L 258.416739 177.616757 
L 258.10136 180.840965 
L 258.10136 183.247578 
L 257.785981 185.28758 
L 257.785981 191.972616 
L 259.047496 169.437871 
L 258.732118 172.716515 
L 258.416739 174.723091 
L 259.588146 160.926949 
L 259.362875 163.990411 
L 259.362875 166.397024 
L 260.128795 150.880377 
L 259.993633 153.960726 
L 259.678254 156.268129 
L 260.098759 158.40592 
L 261.430359 146.59119 
L 262.111177 143.42464 
L 262.551706 140.348035 
L 264.363883 137.9162 
L 264.093559 146.526486 
L 265.039695 128.446951 
L 265.228923 131.501373 
L 264.724316 134.056762 
L 264.093559 135.3959 
L 266.143521 122.453429 
L 265.355074 125.564634 
L 264.724316 144.619119 
L 268.508863 120.116818 
L 270.716515 120.332195 
L 271.158046 123.218639 
L 271.662652 125.743879 
L 272.13572 128.800685 
L 272.924167 132.023552 
L 273.681077 137.649796 
L 274.501062 140.324383 
L 275.13182 145.486443 
L 275.762577 147.991201 
L 276.204108 150.797425 
L 276.834866 153.803561 
L 277.024093 157.011739 
L 278.222533 160.296729 
L 278.916366 163.08873 
L 278.916366 165.495344 
L 279.141637 167.977596 
L 278.390735 170.611172 
L 279.051529 173.707932 
L 281.439397 154.489936 
L 280.80864 160.809426 
L 282.007079 151.580027 
L 281.124019 163.415525 
L 282.836075 147.881356 
L 283.436797 143.920831 
L 285.118818 138.667395 
L 284.277807 141.544802 
L 288.242571 139.038845 
L 288.798238 142.799689 
L 289.639248 146.406767 
L 290.080779 150.215747 
L 290.585385 152.286404 
L 290.427696 155.111364 
L 290.900764 157.165415 
L 291.058453 160.173149 
L 291.531522 162.377613 
L 291.846901 164.850011 
L 291.846901 169.663237 
L 292.16228 172.10221 
L 291.973052 174.770179 
L 292.477658 177.014647 
L 292.477658 179.42126 
L 292.793037 182.22791 
L 292.60381 184.835714 
L 293.108416 187.173772 
L 292.950727 189.848319 
L 293.865326 196.744188 
L 293.739174 199.873211 
L 293.423795 201.779512 
L 294.496083 204.924542 
L 294.212242 208.49531 
L 294.843 211.250757 
L 295.946826 213.402953 
L 296.735273 216.258142 
L 298.154478 223.255924 
L 299.163691 227.009506 
L 299.415994 229.869849 
L 300.551358 233.743335 
L 301.308267 236.815895 
L 302.254404 239.65384 
L 302.885162 242.409287 
L 303.326692 245.045042 
L 307.255412 251.054034 
L 309.237794 252.451195 
L 311.715771 249.616009 
L 313.608044 247.002453 
L 315.500317 236.366852 
L 316.987103 232.226657 
L 317.077212 234.890818 
L 320.546379 227.659259 
L 321.492516 234.224112 
L 321.807895 231.264918 
L 322.438653 238.215225 
L 325.277063 244.890674 
L 325.403214 247.778183 
L 325.907821 250.704525 
L 325.750131 253.613048 
L 326.538578 255.783022 
L 327.642404 264.135589 
L 328.430852 266.74009 
L 328.430852 269.079853 
L 329.061609 271.818587 
L 329.376988 274.658662 
L 329.376988 277.065275 
L 330.112872 280.171332 
L 330.638504 283.127685 
L 331.900019 285.814151 
L 334.423051 289.950351 
L 337.089436 286.638328 
L 337.26146 289.372534 
L 339.604275 283.090236 
L 339.153734 286.157325 
L 341.361386 279.356199 
L 343.659147 276.601603 
L 344.515175 273.437644 
L 348.047418 271.727713 
L 352.399647 271.547557 
L 355.44831 269.690517 
L 358.644149 266.978967 
L 362.176393 266.893499 
L 362.176393 268.932436 
L 365.64556 265.411073 
L 367.537834 262.396414 
L 368.799349 258.581682 
L 369.114728 255.873177 
L 370.781731 253.045505 
L 373.665195 249.998848 
L 375.557468 243.574821 
L 375.106927 246.794711 
L 376.9992 239.635329 
L 379.161798 236.801209 
L 381.33566 234.623616 
L 383.811384 232.539549 
L 385.108943 228.300673 
L 383.937536 234.664965 
L 386.821 224.914171 
L 390.718182 223.335992 
L 392.452766 221.80093 
L 394.57031 225.375047 
L 394.02966 227.250593 
L 397.877283 225.332361 
L 400.021859 227.992446 
L 401.914132 229.791014 
L 402.860269 233.063486 
L 402.650017 235.337108 
L 405.698679 240.541138 
L 407.527877 243.208974 
L 408.3794 246.013813 
L 409.798605 248.382207 
L 411.06012 250.951685 
L 414.108783 259.498233 
L 415.853879 262.353534 
L 416.421561 264.988863 
L 417.761922 268.318498 
L 420.206108 270.407671 
L 422.098381 273.643522 
L 421.783002 275.549823 
L 422.729139 279.131478 
L 424.306033 282.326612 
L 426.618812 284.591712 
L 431.424585 289.742057 
L 434.713537 291.550232 
L 438.498083 290.701818 
L 442.28263 289.552578 
L 445.66169 287.602503 
L 447.734179 284.988337 
L 450.377355 281.079804 
L 452.780242 278.066604 
L 455.370854 275.185675 
L 456.979286 272.924042 
L 459.628469 270.608755 
L 461.8 268.930545 
L 461.8 268.930545 
" clip-path="url(#pec44f5922b)" style="fill: none; stroke: #dc143c; stroke-width: 1.5; stroke-linecap: square"/>
   </g>
   <g id="line2d_27">
    <path d="M 236.16 307.584 
L 236.16 41.472 
" clip-path="url(#pec44f5922b)" style="fill: none; stroke: #000000; stroke-linecap: square"/>
   </g>
   <g id="line2d_28">
    <path d="M 264.7296 307.584 
L 264.7296 41.472 
" clip-path="url(#pec44f5922b)" style="fill: none; stroke: #000000; stroke-width: 0.5; stroke-linecap: square"/>
   </g>
   <g id="line2d_29">
    <path d="M 284.01408 307.584 
L 284.01408 41.472 
" clip-path="url(#pec44f5922b)" style="fill: none; stroke: #000000; stroke-width: 0.5; stroke-linecap: square"/>
   </g>
   <g id="line2d_30">
    <path d="M 318.65472 307.584 
L 318.65472 41.472 
" clip-path="url(#pec44f5922b)" style="fill: none; stroke: #000000; stroke-width: 0.5; stroke-linecap: square"/>
   </g>
   <g id="line2d_31">
    <path d="M 389.7216 307.584 
L 389.7216 41.472 
" clip-path="url(#pec44f5922b)" style="fill: none; stroke: #000000; stroke-width: 0.5; stroke-linecap: square"/>
   </g>
   <g id="patch_3">
    <path d="M 57.6 307.584 
L 57.6 41.472 
" style="fill: none; stroke: #000000; stroke-width: 0.8; stroke-linejoin: miter; stroke-linecap: square"/>
   </g>
   <g id="patch_4">
    <path d="M 414.72 307.584 
L 414.72 41.472 
" style="fill: none; stroke: #000000; stroke-width: 0.8; stroke-linejoin: miter; stroke-linecap: square"/>
   </g>
   <g id="patch_5">
    <path d="M 57.6 307.584 
L 414.72 307.584 
" style="fill: none; stroke: #000000; stroke-width: 0.8; stroke-linejoin: miter; stroke-linecap: square"/>
   </g>
   <g id="patch_6">
    <path d="M 57.6 41.472 
L 414.72 41.472 
" style="fill: none; stroke: #000000; stroke-width: 0.8; stroke-linejoin: miter; stroke-linecap: square"/>
   </g>
   <g id="text_15">
    <!-- 7709.0 -->
    <g transform="translate(197.598175 53.568)scale(0.1 -0.1)">
     <defs>
      <path id="DejaVuSans-39" d="M 703 97 
L 703 672 
Q 941 559 1184 500 
Q 1428 441 1663 441 
Q 2288 441 2617 861 
Q 2947 1281 2994 2138 
Q 2813 1869 2534 1725 
Q 2256 1581 1919 1581 
Q 1219 1581 811 2004 
Q 403 2428 403 3163 
Q 403 3881 828 4315 
Q 1253 4750 1959 4750 
Q 2769 4750 3195 4129 
Q 3622 3509 3622 2328 
Q 3622 1225 3098 567 
Q 2575 -91 1691 -91 
Q 1453 -91 1209 -44 
Q 966 3 703 97 
z
M 1959 2075 
Q 2384 2075 2632 2365 
Q 2881 2656 2881 3163 
Q 2881 3666 2632 3958 
Q 2384 4250 1959 4250 
Q 1534 4250 1286 3958 
Q 1038 3666 1038 3163 
Q 1038 2656 1286 2365 
Q 1534 2075 1959 2075 
z
" transform="scale(0.015625)"/>
     </defs>
     <use xlink:href="#DejaVuSans-37"/>
     <use xlink:href="#DejaVuSans-37" x="63.623047"/>
     <use xlink:href="#DejaVuSans-30" x="127.246094"/>
     <use xlink:href="#DejaVuSans-39" x="190.869141"/>
     <use xlink:href="#DejaVuSans-2e" x="254.492188"/>
     <use xlink:href="#DejaVuSans-30" x="286.279297"/>
    </g>
   </g>
   <g id="text_16">
    <!-- 7709.0 -->
    <g transform="translate(197.598175 53.568)scale(0.1 -0.1)">
     <use xlink:href="#DejaVuSans-37"/>
     <use xlink:href="#DejaVuSans-37" x="63.623047"/>
     <use xlink:href="#DejaVuSans-30" x="127.246094"/>
     <use xlink:href="#DejaVuSans-39" x="190.869141"/>
     <use xlink:href="#DejaVuSans-2e" x="254.492188"/>
     <use xlink:href="#DejaVuSans-30" x="286.279297"/>
    </g>
   </g>
   <g id="text_17">
    <!-- Co -->
    <g transform="translate(119.197828 29.376)scale(0.15 -0.15)">
     <defs>
      <path id="DejaVuSans-43" d="M 4122 4306 
L 4122 3641 
Q 3803 3938 3442 4084 
Q 3081 4231 2675 4231 
Q 1875 4231 1450 3742 
Q 1025 3253 1025 2328 
Q 1025 1406 1450 917 
Q 1875 428 2675 428 
Q 3081 428 3442 575 
Q 3803 722 4122 1019 
L 4122 359 
Q 3791 134 3420 21 
Q 3050 -91 2638 -91 
Q 1578 -91 968 557 
Q 359 1206 359 2328 
Q 359 3453 968 4101 
Q 1578 4750 2638 4750 
Q 3056 4750 3426 4639 
Q 3797 4528 4122 4306 
z
" transform="scale(0.015625)"/>
     </defs>
     <use xlink:href="#DejaVuSans-43"/>
     <use xlink:href="#DejaVuSans-6f" x="69.824219"/>
    </g>
   </g>
   <g id="text_18">
    <!-- 7717.0 -->
    <g transform="translate(247.234287 24.5376)scale(0.1 -0.1)">
     <use xlink:href="#DejaVuSans-37"/>
     <use xlink:href="#DejaVuSans-37" x="63.623047"/>
     <use xlink:href="#DejaVuSans-31" x="127.246094"/>
     <use xlink:href="#DejaVuSans-37" x="190.869141"/>
     <use xlink:href="#DejaVuSans-2e" x="254.492188"/>
     <use xlink:href="#DejaVuSans-30" x="286.279297"/>
    </g>
   </g>
   <g id="text_19">
    <!-- 7722.4 -->
    <g transform="translate(266.518767 36.6336)scale(0.1 -0.1)">
     <use xlink:href="#DejaVuSans-37"/>
     <use xlink:href="#DejaVuSans-37" x="63.623047"/>
     <use xlink:href="#DejaVuSans-32" x="127.246094"/>
     <use xlink:href="#DejaVuSans-32" x="190.869141"/>
     <use xlink:href="#DejaVuSans-2e" x="254.492188"/>
     <use xlink:href="#DejaVuSans-34" x="286.279297"/>
    </g>
   </g>
   <g id="text_20">
    <!-- 7732.1 -->
    <g transform="translate(301.159407 24.5376)scale(0.1 -0.1)">
     <defs>
      <path id="DejaVuSans-33" d="M 2597 2516 
Q 3050 2419 3304 2112 
Q 3559 1806 3559 1356 
Q 3559 666 3084 287 
Q 2609 -91 1734 -91 
Q 1441 -91 1130 -33 
Q 819 25 488 141 
L 488 750 
Q 750 597 1062 519 
Q 1375 441 1716 441 
Q 2309 441 2620 675 
Q 2931 909 2931 1356 
Q 2931 1769 2642 2001 
Q 2353 2234 1838 2234 
L 1294 2234 
L 1294 2753 
L 1863 2753 
Q 2328 2753 2575 2939 
Q 2822 3125 2822 3475 
Q 2822 3834 2567 4026 
Q 2313 4219 1838 4219 
Q 1578 4219 1281 4162 
Q 984 4106 628 3988 
L 628 4550 
Q 988 4650 1302 4700 
Q 1616 4750 1894 4750 
Q 2613 4750 3031 4423 
Q 3450 4097 3450 3541 
Q 3450 3153 3228 2886 
Q 3006 2619 2597 2516 
z
" transform="scale(0.015625)"/>
     </defs>
     <use xlink:href="#DejaVuSans-37"/>
     <use xlink:href="#DejaVuSans-37" x="63.623047"/>
     <use xlink:href="#DejaVuSans-33" x="127.246094"/>
     <use xlink:href="#DejaVuSans-32" x="190.869141"/>
     <use xlink:href="#DejaVuSans-2e" x="254.492188"/>
     <use xlink:href="#DejaVuSans-31" x="286.279297"/>
    </g>
   </g>
   <g id="text_21">
    <!-- 7752.0 -->
    <g transform="translate(372.226287 36.6336)scale(0.1 -0.1)">
     <use xlink:href="#DejaVuSans-37"/>
     <use xlink:href="#DejaVuSans-37" x="63.623047"/>
     <use xlink:href="#DejaVuSans-35" x="127.246094"/>
     <use xlink:href="#DejaVuSans-32" x="190.869141"/>
     <use xlink:href="#DejaVuSans-2e" x="254.492188"/>
     <use xlink:href="#DejaVuSans-30" x="286.279297"/>
    </g>
   </g>
   <g id="legend_1">
    <g id="patch_7">
     <path d="M 64.6 78.82825 
L 171.228125 78.82825 
Q 173.228125 78.82825 173.228125 76.82825 
L 173.228125 48.472 
Q 173.228125 46.472 171.228125 46.472 
L 64.6 46.472 
Q 62.6 46.472 62.6 48.472 
L 62.6 76.82825 
Q 62.6 78.82825 64.6 78.82825 
z
" style="fill: #ffffff; opacity: 0.8; stroke: #cccccc; stroke-linejoin: miter"/>
    </g>
    <g id="line2d_32">
     <path d="M 66.6 54.570437 
L 76.6 54.570437 
L 86.6 54.570437 
" style="fill: none; stroke: #1e90ff; stroke-width: 1.5; stroke-linecap: square"/>
    </g>
    <g id="text_22">
     <!-- Hephaestus -->
     <g transform="translate(94.6 58.070437)scale(0.1 -0.1)">
      <defs>
       <path id="DejaVuSans-48" d="M 628 4666 
L 1259 4666 
L 1259 2753 
L 3553 2753 
L 3553 4666 
L 4184 4666 
L 4184 0 
L 3553 0 
L 3553 2222 
L 1259 2222 
L 1259 0 
L 628 0 
L 628 4666 
z
" transform="scale(0.015625)"/>
       <path id="DejaVuSans-68" d="M 3513 2113 
L 3513 0 
L 2938 0 
L 2938 2094 
Q 2938 2591 2744 2837 
Q 2550 3084 2163 3084 
Q 1697 3084 1428 2787 
Q 1159 2491 1159 1978 
L 1159 0 
L 581 0 
L 581 4863 
L 1159 4863 
L 1159 2956 
Q 1366 3272 1645 3428 
Q 1925 3584 2291 3584 
Q 2894 3584 3203 3211 
Q 3513 2838 3513 2113 
z
" transform="scale(0.015625)"/>
       <path id="DejaVuSans-61" d="M 2194 1759 
Q 1497 1759 1228 1600 
Q 959 1441 959 1056 
Q 959 750 1161 570 
Q 1363 391 1709 391 
Q 2188 391 2477 730 
Q 2766 1069 2766 1631 
L 2766 1759 
L 2194 1759 
z
M 3341 1997 
L 3341 0 
L 2766 0 
L 2766 531 
Q 2569 213 2275 61 
Q 1981 -91 1556 -91 
Q 1019 -91 701 211 
Q 384 513 384 1019 
Q 384 1609 779 1909 
Q 1175 2209 1959 2209 
L 2766 2209 
L 2766 2266 
Q 2766 2663 2505 2880 
Q 2244 3097 1772 3097 
Q 1472 3097 1187 3025 
Q 903 2953 641 2809 
L 641 3341 
Q 956 3463 1253 3523 
Q 1550 3584 1831 3584 
Q 2591 3584 2966 3190 
Q 3341 2797 3341 1997 
z
" transform="scale(0.015625)"/>
       <path id="DejaVuSans-75" d="M 544 1381 
L 544 3500 
L 1119 3500 
L 1119 1403 
Q 1119 906 1312 657 
Q 1506 409 1894 409 
Q 2359 409 2629 706 
Q 2900 1003 2900 1516 
L 2900 3500 
L 3475 3500 
L 3475 0 
L 2900 0 
L 2900 538 
Q 2691 219 2414 64 
Q 2138 -91 1772 -91 
Q 1169 -91 856 284 
Q 544 659 544 1381 
z
M 1991 3584 
L 1991 3584 
z
" transform="scale(0.015625)"/>
      </defs>
      <use xlink:href="#DejaVuSans-48"/>
      <use xlink:href="#DejaVuSans-65" x="75.195312"/>
      <use xlink:href="#DejaVuSans-70" x="136.71875"/>
      <use xlink:href="#DejaVuSans-68" x="200.195312"/>
      <use xlink:href="#DejaVuSans-61" x="263.574219"/>
      <use xlink:href="#DejaVuSans-65" x="324.853516"/>
      <use xlink:href="#DejaVuSans-73" x="386.376953"/>
      <use xlink:href="#DejaVuSans-74" x="438.476562"/>
      <use xlink:href="#DejaVuSans-75" x="477.685547"/>
      <use xlink:href="#DejaVuSans-73" x="541.064453"/>
     </g>
    </g>
    <g id="line2d_33">
     <path d="M 66.6 69.248562 
L 76.6 69.248562 
L 86.6 69.248562 
" style="fill: none; stroke: #dc143c; stroke-width: 1.5; stroke-linecap: square"/>
    </g>
    <g id="text_23">
     <!-- XAFS Materials -->
     <g transform="translate(94.6 72.748562)scale(0.1 -0.1)">
      <defs>
       <path id="DejaVuSans-58" d="M 403 4666 
L 1081 4666 
L 2241 2931 
L 3406 4666 
L 4084 4666 
L 2584 2425 
L 4184 0 
L 3506 0 
L 2194 1984 
L 872 0 
L 191 0 
L 1856 2491 
L 403 4666 
z
" transform="scale(0.015625)"/>
       <path id="DejaVuSans-46" d="M 628 4666 
L 3309 4666 
L 3309 4134 
L 1259 4134 
L 1259 2759 
L 3109 2759 
L 3109 2228 
L 1259 2228 
L 1259 0 
L 628 0 
L 628 4666 
z
" transform="scale(0.015625)"/>
       <path id="DejaVuSans-53" d="M 3425 4513 
L 3425 3897 
Q 3066 4069 2747 4153 
Q 2428 4238 2131 4238 
Q 1616 4238 1336 4038 
Q 1056 3838 1056 3469 
Q 1056 3159 1242 3001 
Q 1428 2844 1947 2747 
L 2328 2669 
Q 3034 2534 3370 2195 
Q 3706 1856 3706 1288 
Q 3706 609 3251 259 
Q 2797 -91 1919 -91 
Q 1588 -91 1214 -16 
Q 841 59 441 206 
L 441 856 
Q 825 641 1194 531 
Q 1563 422 1919 422 
Q 2459 422 2753 634 
Q 3047 847 3047 1241 
Q 3047 1584 2836 1778 
Q 2625 1972 2144 2069 
L 1759 2144 
Q 1053 2284 737 2584 
Q 422 2884 422 3419 
Q 422 4038 858 4394 
Q 1294 4750 2059 4750 
Q 2388 4750 2728 4690 
Q 3069 4631 3425 4513 
z
" transform="scale(0.015625)"/>
       <path id="DejaVuSans-4d" d="M 628 4666 
L 1569 4666 
L 2759 1491 
L 3956 4666 
L 4897 4666 
L 4897 0 
L 4281 0 
L 4281 4097 
L 3078 897 
L 2444 897 
L 1241 4097 
L 1241 0 
L 628 0 
L 628 4666 
z
" transform="scale(0.015625)"/>
       <path id="DejaVuSans-6c" d="M 603 4863 
L 1178 4863 
L 1178 0 
L 603 0 
L 603 4863 
z
" transform="scale(0.015625)"/>
      </defs>
      <use xlink:href="#DejaVuSans-58"/>
      <use xlink:href="#DejaVuSans-41" x="68.505859"/>
      <use xlink:href="#DejaVuSans-46" x="136.914062"/>
      <use xlink:href="#DejaVuSans-53" x="192.683594"/>
      <use xlink:href="#DejaVuSans-20" x="256.160156"/>
      <use xlink:href="#DejaVuSans-4d" x="287.947266"/>
      <use xlink:href="#DejaVuSans-61" x="374.226562"/>
      <use xlink:href="#DejaVuSans-74" x="435.505859"/>
      <use xlink:href="#DejaVuSans-65" x="474.714844"/>
      <use xlink:href="#DejaVuSans-72" x="536.238281"/>
      <use xlink:href="#DejaVuSans-69" x="577.351562"/>
      <use xlink:href="#DejaVuSans-61" x="605.134766"/>
      <use xlink:href="#DejaVuSans-6c" x="666.414062"/>
      <use xlink:href="#DejaVuSans-73" x="694.197266"/>
     </g>
    </g>
   </g>
  </g>
 </g>
 <defs>
  <clipPath id="pec44f5922b">
   <rect x="57.6" y="41.472" width="357.12" height="266.112"/>
  </clipPath>
 </defs>
</svg>
