<?xml version="1.0" encoding="utf-8" standalone="no"?>
<!DOCTYPE svg PUBLIC "-//W3C//DTD SVG 1.1//EN"
  "http://www.w3.org/Graphics/SVG/1.1/DTD/svg11.dtd">
<svg xmlns:xlink="http://www.w3.org/1999/xlink" width="460.8pt" height="345.6pt" viewBox="0 0 460.8 345.6" xmlns="http://www.w3.org/2000/svg" version="1.1">
 <metadata>
  <rdf:RDF xmlns:dc="http://purl.org/dc/elements/1.1/" xmlns:cc="http://creativecommons.org/ns#" xmlns:rdf="http://www.w3.org/1999/02/22-rdf-syntax-ns#">
   <cc:Work>
    <dc:type rdf:resource="http://purl.org/dc/dcmitype/StillImage"/>
    <dc:date>2021-11-30T22:26:47.491829</dc:date>
    <dc:format>image/svg+xml</dc:format>
    <dc:creator>
     <cc:Agent>
      <dc:title>Matplotlib v3.5.0, https://matplotlib.org/</dc:title>
     </cc:Agent>
    </dc:creator>
   </cc:Work>
  </rdf:RDF>
 </metadata>
 <defs>
  <style type="text/css">*{stroke-linejoin: round; stroke-linecap: butt}</style>
 </defs>
 <g id="figure_1">
  <g id="patch_1">
   <path d="M 0 345.6 
L 460.8 345.6 
L 460.8 0 
L 0 0 
z
" style="fill: #ffffff"/>
  </g>
  <g id="axes_1">
   <g id="patch_2">
    <path d="M 57.6 307.584 
L 414.72 307.584 
L 414.72 41.472 
L 57.6 41.472 
z
" style="fill: #ffffff"/>
   </g>
   <g id="matplotlib.axis_1">
    <g id="xtick_1">
     <g id="line2d_1">
      <path d="M 61.1712 307.584 
L 61.1712 41.472 
" clip-path="url(#pb9c1438500)" style="fill: none; stroke: #b0b0b0; stroke-width: 0.8; stroke-linecap: square"/>
     </g>
     <g id="line2d_2">
      <defs>
       <path id="m6f4566f2e2" d="M 0 0 
L 0 3.5 
" style="stroke: #000000; stroke-width: 0.8"/>
      </defs>
      <g>
       <use xlink:href="#m6f4566f2e2" x="61.1712" y="307.584" style="stroke: #000000; stroke-width: 0.8"/>
      </g>
     </g>
     <g id="text_1">
      <!-- 5940 -->
      <g transform="translate(48.4462 322.182437)scale(0.1 -0.1)">
       <defs>
        <path id="DejaVuSans-35" d="M 691 4666 
L 3169 4666 
L 3169 4134 
L 1269 4134 
L 1269 2991 
Q 1406 3038 1543 3061 
Q 1681 3084 1819 3084 
Q 2600 3084 3056 2656 
Q 3513 2228 3513 1497 
Q 3513 744 3044 326 
Q 2575 -91 1722 -91 
Q 1428 -91 1123 -41 
Q 819 9 494 109 
L 494 744 
Q 775 591 1075 516 
Q 1375 441 1709 441 
Q 2250 441 2565 725 
Q 2881 1009 2881 1497 
Q 2881 1984 2565 2268 
Q 2250 2553 1709 2553 
Q 1456 2553 1204 2497 
Q 953 2441 691 2322 
L 691 4666 
z
" transform="scale(0.015625)"/>
        <path id="DejaVuSans-39" d="M 703 97 
L 703 672 
Q 941 559 1184 500 
Q 1428 441 1663 441 
Q 2288 441 2617 861 
Q 2947 1281 2994 2138 
Q 2813 1869 2534 1725 
Q 2256 1581 1919 1581 
Q 1219 1581 811 2004 
Q 403 2428 403 3163 
Q 403 3881 828 4315 
Q 1253 4750 1959 4750 
Q 2769 4750 3195 4129 
Q 3622 3509 3622 2328 
Q 3622 1225 3098 567 
Q 2575 -91 1691 -91 
Q 1453 -91 1209 -44 
Q 966 3 703 97 
z
M 1959 2075 
Q 2384 2075 2632 2365 
Q 2881 2656 2881 3163 
Q 2881 3666 2632 3958 
Q 2384 4250 1959 4250 
Q 1534 4250 1286 3958 
Q 1038 3666 1038 3163 
Q 1038 2656 1286 2365 
Q 1534 2075 1959 2075 
z
" transform="scale(0.015625)"/>
        <path id="DejaVuSans-34" d="M 2419 4116 
L 825 1625 
L 2419 1625 
L 2419 4116 
z
M 2253 4666 
L 3047 4666 
L 3047 1625 
L 3713 1625 
L 3713 1100 
L 3047 1100 
L 3047 0 
L 2419 0 
L 2419 1100 
L 313 1100 
L 313 1709 
L 2253 4666 
z
" transform="scale(0.015625)"/>
        <path id="DejaVuSans-30" d="M 2034 4250 
Q 1547 4250 1301 3770 
Q 1056 3291 1056 2328 
Q 1056 1369 1301 889 
Q 1547 409 2034 409 
Q 2525 409 2770 889 
Q 3016 1369 3016 2328 
Q 3016 3291 2770 3770 
Q 2525 4250 2034 4250 
z
M 2034 4750 
Q 2819 4750 3233 4129 
Q 3647 3509 3647 2328 
Q 3647 1150 3233 529 
Q 2819 -91 2034 -91 
Q 1250 -91 836 529 
Q 422 1150 422 2328 
Q 422 3509 836 4129 
Q 1250 4750 2034 4750 
z
" transform="scale(0.015625)"/>
       </defs>
       <use xlink:href="#DejaVuSans-35"/>
       <use xlink:href="#DejaVuSans-39" x="63.623047"/>
       <use xlink:href="#DejaVuSans-34" x="127.246094"/>
       <use xlink:href="#DejaVuSans-30" x="190.869141"/>
      </g>
     </g>
    </g>
    <g id="xtick_2">
     <g id="line2d_3">
      <path d="M 132.5952 307.584 
L 132.5952 41.472 
" clip-path="url(#pb9c1438500)" style="fill: none; stroke: #b0b0b0; stroke-width: 0.8; stroke-linecap: square"/>
     </g>
     <g id="line2d_4">
      <g>
       <use xlink:href="#m6f4566f2e2" x="132.5952" y="307.584" style="stroke: #000000; stroke-width: 0.8"/>
      </g>
     </g>
     <g id="text_2">
      <!-- 5960 -->
      <g transform="translate(119.8702 322.182437)scale(0.1 -0.1)">
       <defs>
        <path id="DejaVuSans-36" d="M 2113 2584 
Q 1688 2584 1439 2293 
Q 1191 2003 1191 1497 
Q 1191 994 1439 701 
Q 1688 409 2113 409 
Q 2538 409 2786 701 
Q 3034 994 3034 1497 
Q 3034 2003 2786 2293 
Q 2538 2584 2113 2584 
z
M 3366 4563 
L 3366 3988 
Q 3128 4100 2886 4159 
Q 2644 4219 2406 4219 
Q 1781 4219 1451 3797 
Q 1122 3375 1075 2522 
Q 1259 2794 1537 2939 
Q 1816 3084 2150 3084 
Q 2853 3084 3261 2657 
Q 3669 2231 3669 1497 
Q 3669 778 3244 343 
Q 2819 -91 2113 -91 
Q 1303 -91 875 529 
Q 447 1150 447 2328 
Q 447 3434 972 4092 
Q 1497 4750 2381 4750 
Q 2619 4750 2861 4703 
Q 3103 4656 3366 4563 
z
" transform="scale(0.015625)"/>
       </defs>
       <use xlink:href="#DejaVuSans-35"/>
       <use xlink:href="#DejaVuSans-39" x="63.623047"/>
       <use xlink:href="#DejaVuSans-36" x="127.246094"/>
       <use xlink:href="#DejaVuSans-30" x="190.869141"/>
      </g>
     </g>
    </g>
    <g id="xtick_3">
     <g id="line2d_5">
      <path d="M 204.0192 307.584 
L 204.0192 41.472 
" clip-path="url(#pb9c1438500)" style="fill: none; stroke: #b0b0b0; stroke-width: 0.8; stroke-linecap: square"/>
     </g>
     <g id="line2d_6">
      <g>
       <use xlink:href="#m6f4566f2e2" x="204.0192" y="307.584" style="stroke: #000000; stroke-width: 0.8"/>
      </g>
     </g>
     <g id="text_3">
      <!-- 5980 -->
      <g transform="translate(191.2942 322.182437)scale(0.1 -0.1)">
       <defs>
        <path id="DejaVuSans-38" d="M 2034 2216 
Q 1584 2216 1326 1975 
Q 1069 1734 1069 1313 
Q 1069 891 1326 650 
Q 1584 409 2034 409 
Q 2484 409 2743 651 
Q 3003 894 3003 1313 
Q 3003 1734 2745 1975 
Q 2488 2216 2034 2216 
z
M 1403 2484 
Q 997 2584 770 2862 
Q 544 3141 544 3541 
Q 544 4100 942 4425 
Q 1341 4750 2034 4750 
Q 2731 4750 3128 4425 
Q 3525 4100 3525 3541 
Q 3525 3141 3298 2862 
Q 3072 2584 2669 2484 
Q 3125 2378 3379 2068 
Q 3634 1759 3634 1313 
Q 3634 634 3220 271 
Q 2806 -91 2034 -91 
Q 1263 -91 848 271 
Q 434 634 434 1313 
Q 434 1759 690 2068 
Q 947 2378 1403 2484 
z
M 1172 3481 
Q 1172 3119 1398 2916 
Q 1625 2713 2034 2713 
Q 2441 2713 2670 2916 
Q 2900 3119 2900 3481 
Q 2900 3844 2670 4047 
Q 2441 4250 2034 4250 
Q 1625 4250 1398 4047 
Q 1172 3844 1172 3481 
z
" transform="scale(0.015625)"/>
       </defs>
       <use xlink:href="#DejaVuSans-35"/>
       <use xlink:href="#DejaVuSans-39" x="63.623047"/>
       <use xlink:href="#DejaVuSans-38" x="127.246094"/>
       <use xlink:href="#DejaVuSans-30" x="190.869141"/>
      </g>
     </g>
    </g>
    <g id="xtick_4">
     <g id="line2d_7">
      <path d="M 275.4432 307.584 
L 275.4432 41.472 
" clip-path="url(#pb9c1438500)" style="fill: none; stroke: #b0b0b0; stroke-width: 0.8; stroke-linecap: square"/>
     </g>
     <g id="line2d_8">
      <g>
       <use xlink:href="#m6f4566f2e2" x="275.4432" y="307.584" style="stroke: #000000; stroke-width: 0.8"/>
      </g>
     </g>
     <g id="text_4">
      <!-- 6000 -->
      <g transform="translate(262.7182 322.182437)scale(0.1 -0.1)">
       <use xlink:href="#DejaVuSans-36"/>
       <use xlink:href="#DejaVuSans-30" x="63.623047"/>
       <use xlink:href="#DejaVuSans-30" x="127.246094"/>
       <use xlink:href="#DejaVuSans-30" x="190.869141"/>
      </g>
     </g>
    </g>
    <g id="xtick_5">
     <g id="line2d_9">
      <path d="M 346.8672 307.584 
L 346.8672 41.472 
" clip-path="url(#pb9c1438500)" style="fill: none; stroke: #b0b0b0; stroke-width: 0.8; stroke-linecap: square"/>
     </g>
     <g id="line2d_10">
      <g>
       <use xlink:href="#m6f4566f2e2" x="346.8672" y="307.584" style="stroke: #000000; stroke-width: 0.8"/>
      </g>
     </g>
     <g id="text_5">
      <!-- 6020 -->
      <g transform="translate(334.1422 322.182437)scale(0.1 -0.1)">
       <defs>
        <path id="DejaVuSans-32" d="M 1228 531 
L 3431 531 
L 3431 0 
L 469 0 
L 469 531 
Q 828 903 1448 1529 
Q 2069 2156 2228 2338 
Q 2531 2678 2651 2914 
Q 2772 3150 2772 3378 
Q 2772 3750 2511 3984 
Q 2250 4219 1831 4219 
Q 1534 4219 1204 4116 
Q 875 4013 500 3803 
L 500 4441 
Q 881 4594 1212 4672 
Q 1544 4750 1819 4750 
Q 2544 4750 2975 4387 
Q 3406 4025 3406 3419 
Q 3406 3131 3298 2873 
Q 3191 2616 2906 2266 
Q 2828 2175 2409 1742 
Q 1991 1309 1228 531 
z
" transform="scale(0.015625)"/>
       </defs>
       <use xlink:href="#DejaVuSans-36"/>
       <use xlink:href="#DejaVuSans-30" x="63.623047"/>
       <use xlink:href="#DejaVuSans-32" x="127.246094"/>
       <use xlink:href="#DejaVuSans-30" x="190.869141"/>
      </g>
     </g>
    </g>
    <g id="text_6">
     <!-- Energy (eV) -->
     <g transform="translate(206.66625 335.860562)scale(0.1 -0.1)">
      <defs>
       <path id="DejaVuSans-45" d="M 628 4666 
L 3578 4666 
L 3578 4134 
L 1259 4134 
L 1259 2753 
L 3481 2753 
L 3481 2222 
L 1259 2222 
L 1259 531 
L 3634 531 
L 3634 0 
L 628 0 
L 628 4666 
z
" transform="scale(0.015625)"/>
       <path id="DejaVuSans-6e" d="M 3513 2113 
L 3513 0 
L 2938 0 
L 2938 2094 
Q 2938 2591 2744 2837 
Q 2550 3084 2163 3084 
Q 1697 3084 1428 2787 
Q 1159 2491 1159 1978 
L 1159 0 
L 581 0 
L 581 3500 
L 1159 3500 
L 1159 2956 
Q 1366 3272 1645 3428 
Q 1925 3584 2291 3584 
Q 2894 3584 3203 3211 
Q 3513 2838 3513 2113 
z
" transform="scale(0.015625)"/>
       <path id="DejaVuSans-65" d="M 3597 1894 
L 3597 1613 
L 953 1613 
Q 991 1019 1311 708 
Q 1631 397 2203 397 
Q 2534 397 2845 478 
Q 3156 559 3463 722 
L 3463 178 
Q 3153 47 2828 -22 
Q 2503 -91 2169 -91 
Q 1331 -91 842 396 
Q 353 884 353 1716 
Q 353 2575 817 3079 
Q 1281 3584 2069 3584 
Q 2775 3584 3186 3129 
Q 3597 2675 3597 1894 
z
M 3022 2063 
Q 3016 2534 2758 2815 
Q 2500 3097 2075 3097 
Q 1594 3097 1305 2825 
Q 1016 2553 972 2059 
L 3022 2063 
z
" transform="scale(0.015625)"/>
       <path id="DejaVuSans-72" d="M 2631 2963 
Q 2534 3019 2420 3045 
Q 2306 3072 2169 3072 
Q 1681 3072 1420 2755 
Q 1159 2438 1159 1844 
L 1159 0 
L 581 0 
L 581 3500 
L 1159 3500 
L 1159 2956 
Q 1341 3275 1631 3429 
Q 1922 3584 2338 3584 
Q 2397 3584 2469 3576 
Q 2541 3569 2628 3553 
L 2631 2963 
z
" transform="scale(0.015625)"/>
       <path id="DejaVuSans-67" d="M 2906 1791 
Q 2906 2416 2648 2759 
Q 2391 3103 1925 3103 
Q 1463 3103 1205 2759 
Q 947 2416 947 1791 
Q 947 1169 1205 825 
Q 1463 481 1925 481 
Q 2391 481 2648 825 
Q 2906 1169 2906 1791 
z
M 3481 434 
Q 3481 -459 3084 -895 
Q 2688 -1331 1869 -1331 
Q 1566 -1331 1297 -1286 
Q 1028 -1241 775 -1147 
L 775 -588 
Q 1028 -725 1275 -790 
Q 1522 -856 1778 -856 
Q 2344 -856 2625 -561 
Q 2906 -266 2906 331 
L 2906 616 
Q 2728 306 2450 153 
Q 2172 0 1784 0 
Q 1141 0 747 490 
Q 353 981 353 1791 
Q 353 2603 747 3093 
Q 1141 3584 1784 3584 
Q 2172 3584 2450 3431 
Q 2728 3278 2906 2969 
L 2906 3500 
L 3481 3500 
L 3481 434 
z
" transform="scale(0.015625)"/>
       <path id="DejaVuSans-79" d="M 2059 -325 
Q 1816 -950 1584 -1140 
Q 1353 -1331 966 -1331 
L 506 -1331 
L 506 -850 
L 844 -850 
Q 1081 -850 1212 -737 
Q 1344 -625 1503 -206 
L 1606 56 
L 191 3500 
L 800 3500 
L 1894 763 
L 2988 3500 
L 3597 3500 
L 2059 -325 
z
" transform="scale(0.015625)"/>
       <path id="DejaVuSans-20" transform="scale(0.015625)"/>
       <path id="DejaVuSans-28" d="M 1984 4856 
Q 1566 4138 1362 3434 
Q 1159 2731 1159 2009 
Q 1159 1288 1364 580 
Q 1569 -128 1984 -844 
L 1484 -844 
Q 1016 -109 783 600 
Q 550 1309 550 2009 
Q 550 2706 781 3412 
Q 1013 4119 1484 4856 
L 1984 4856 
z
" transform="scale(0.015625)"/>
       <path id="DejaVuSans-56" d="M 1831 0 
L 50 4666 
L 709 4666 
L 2188 738 
L 3669 4666 
L 4325 4666 
L 2547 0 
L 1831 0 
z
" transform="scale(0.015625)"/>
       <path id="DejaVuSans-29" d="M 513 4856 
L 1013 4856 
Q 1481 4119 1714 3412 
Q 1947 2706 1947 2009 
Q 1947 1309 1714 600 
Q 1481 -109 1013 -844 
L 513 -844 
Q 928 -128 1133 580 
Q 1338 1288 1338 2009 
Q 1338 2731 1133 3434 
Q 928 4138 513 4856 
z
" transform="scale(0.015625)"/>
      </defs>
      <use xlink:href="#DejaVuSans-45"/>
      <use xlink:href="#DejaVuSans-6e" x="63.183594"/>
      <use xlink:href="#DejaVuSans-65" x="126.5625"/>
      <use xlink:href="#DejaVuSans-72" x="188.085938"/>
      <use xlink:href="#DejaVuSans-67" x="227.449219"/>
      <use xlink:href="#DejaVuSans-79" x="290.925781"/>
      <use xlink:href="#DejaVuSans-20" x="350.105469"/>
      <use xlink:href="#DejaVuSans-28" x="381.892578"/>
      <use xlink:href="#DejaVuSans-65" x="420.90625"/>
      <use xlink:href="#DejaVuSans-56" x="482.429688"/>
      <use xlink:href="#DejaVuSans-29" x="550.837891"/>
     </g>
    </g>
   </g>
   <g id="matplotlib.axis_2">
    <g id="ytick_1">
     <g id="line2d_11">
      <path d="M 57.6 302.242609 
L 414.72 302.242609 
" clip-path="url(#pb9c1438500)" style="fill: none; stroke: #b0b0b0; stroke-width: 0.8; stroke-linecap: square"/>
     </g>
     <g id="line2d_12">
      <defs>
       <path id="md75794d9fe" d="M 0 0 
L -3.5 0 
" style="stroke: #000000; stroke-width: 0.8"/>
      </defs>
      <g>
       <use xlink:href="#md75794d9fe" x="57.6" y="302.242609" style="stroke: #000000; stroke-width: 0.8"/>
      </g>
     </g>
     <g id="text_7">
      <!-- −0.04 -->
      <g transform="translate(19.954687 306.041828)scale(0.1 -0.1)">
       <defs>
        <path id="DejaVuSans-2212" d="M 678 2272 
L 4684 2272 
L 4684 1741 
L 678 1741 
L 678 2272 
z
" transform="scale(0.015625)"/>
        <path id="DejaVuSans-2e" d="M 684 794 
L 1344 794 
L 1344 0 
L 684 0 
L 684 794 
z
" transform="scale(0.015625)"/>
       </defs>
       <use xlink:href="#DejaVuSans-2212"/>
       <use xlink:href="#DejaVuSans-30" x="83.789062"/>
       <use xlink:href="#DejaVuSans-2e" x="147.412109"/>
       <use xlink:href="#DejaVuSans-30" x="179.199219"/>
       <use xlink:href="#DejaVuSans-34" x="242.822266"/>
      </g>
     </g>
    </g>
    <g id="ytick_2">
     <g id="line2d_13">
      <path d="M 57.6 262.593668 
L 414.72 262.593668 
" clip-path="url(#pb9c1438500)" style="fill: none; stroke: #b0b0b0; stroke-width: 0.8; stroke-linecap: square"/>
     </g>
     <g id="line2d_14">
      <g>
       <use xlink:href="#md75794d9fe" x="57.6" y="262.593668" style="stroke: #000000; stroke-width: 0.8"/>
      </g>
     </g>
     <g id="text_8">
      <!-- −0.02 -->
      <g transform="translate(19.954687 266.392887)scale(0.1 -0.1)">
       <use xlink:href="#DejaVuSans-2212"/>
       <use xlink:href="#DejaVuSans-30" x="83.789062"/>
       <use xlink:href="#DejaVuSans-2e" x="147.412109"/>
       <use xlink:href="#DejaVuSans-30" x="179.199219"/>
       <use xlink:href="#DejaVuSans-32" x="242.822266"/>
      </g>
     </g>
    </g>
    <g id="ytick_3">
     <g id="line2d_15">
      <path d="M 57.6 222.944727 
L 414.72 222.944727 
" clip-path="url(#pb9c1438500)" style="fill: none; stroke: #b0b0b0; stroke-width: 0.8; stroke-linecap: square"/>
     </g>
     <g id="line2d_16">
      <g>
       <use xlink:href="#md75794d9fe" x="57.6" y="222.944727" style="stroke: #000000; stroke-width: 0.8"/>
      </g>
     </g>
     <g id="text_9">
      <!-- 0.00 -->
      <g transform="translate(28.334375 226.743946)scale(0.1 -0.1)">
       <use xlink:href="#DejaVuSans-30"/>
       <use xlink:href="#DejaVuSans-2e" x="63.623047"/>
       <use xlink:href="#DejaVuSans-30" x="95.410156"/>
       <use xlink:href="#DejaVuSans-30" x="159.033203"/>
      </g>
     </g>
    </g>
    <g id="ytick_4">
     <g id="line2d_17">
      <path d="M 57.6 183.295786 
L 414.72 183.295786 
" clip-path="url(#pb9c1438500)" style="fill: none; stroke: #b0b0b0; stroke-width: 0.8; stroke-linecap: square"/>
     </g>
     <g id="line2d_18">
      <g>
       <use xlink:href="#md75794d9fe" x="57.6" y="183.295786" style="stroke: #000000; stroke-width: 0.8"/>
      </g>
     </g>
     <g id="text_10">
      <!-- 0.02 -->
      <g transform="translate(28.334375 187.095005)scale(0.1 -0.1)">
       <use xlink:href="#DejaVuSans-30"/>
       <use xlink:href="#DejaVuSans-2e" x="63.623047"/>
       <use xlink:href="#DejaVuSans-30" x="95.410156"/>
       <use xlink:href="#DejaVuSans-32" x="159.033203"/>
      </g>
     </g>
    </g>
    <g id="ytick_5">
     <g id="line2d_19">
      <path d="M 57.6 143.646845 
L 414.72 143.646845 
" clip-path="url(#pb9c1438500)" style="fill: none; stroke: #b0b0b0; stroke-width: 0.8; stroke-linecap: square"/>
     </g>
     <g id="line2d_20">
      <g>
       <use xlink:href="#md75794d9fe" x="57.6" y="143.646845" style="stroke: #000000; stroke-width: 0.8"/>
      </g>
     </g>
     <g id="text_11">
      <!-- 0.04 -->
      <g transform="translate(28.334375 147.446064)scale(0.1 -0.1)">
       <use xlink:href="#DejaVuSans-30"/>
       <use xlink:href="#DejaVuSans-2e" x="63.623047"/>
       <use xlink:href="#DejaVuSans-30" x="95.410156"/>
       <use xlink:href="#DejaVuSans-34" x="159.033203"/>
      </g>
     </g>
    </g>
    <g id="ytick_6">
     <g id="line2d_21">
      <path d="M 57.6 103.997904 
L 414.72 103.997904 
" clip-path="url(#pb9c1438500)" style="fill: none; stroke: #b0b0b0; stroke-width: 0.8; stroke-linecap: square"/>
     </g>
     <g id="line2d_22">
      <g>
       <use xlink:href="#md75794d9fe" x="57.6" y="103.997904" style="stroke: #000000; stroke-width: 0.8"/>
      </g>
     </g>
     <g id="text_12">
      <!-- 0.06 -->
      <g transform="translate(28.334375 107.797123)scale(0.1 -0.1)">
       <use xlink:href="#DejaVuSans-30"/>
       <use xlink:href="#DejaVuSans-2e" x="63.623047"/>
       <use xlink:href="#DejaVuSans-30" x="95.410156"/>
       <use xlink:href="#DejaVuSans-36" x="159.033203"/>
      </g>
     </g>
    </g>
    <g id="ytick_7">
     <g id="line2d_23">
      <path d="M 57.6 64.348963 
L 414.72 64.348963 
" clip-path="url(#pb9c1438500)" style="fill: none; stroke: #b0b0b0; stroke-width: 0.8; stroke-linecap: square"/>
     </g>
     <g id="line2d_24">
      <g>
       <use xlink:href="#md75794d9fe" x="57.6" y="64.348963" style="stroke: #000000; stroke-width: 0.8"/>
      </g>
     </g>
     <g id="text_13">
      <!-- 0.08 -->
      <g transform="translate(28.334375 68.148182)scale(0.1 -0.1)">
       <use xlink:href="#DejaVuSans-30"/>
       <use xlink:href="#DejaVuSans-2e" x="63.623047"/>
       <use xlink:href="#DejaVuSans-30" x="95.410156"/>
       <use xlink:href="#DejaVuSans-38" x="159.033203"/>
      </g>
     </g>
    </g>
    <g id="text_14">
     <!-- Absorption -->
     <g transform="translate(13.875 201.593625)rotate(-90)scale(0.1 -0.1)">
      <defs>
       <path id="DejaVuSans-41" d="M 2188 4044 
L 1331 1722 
L 3047 1722 
L 2188 4044 
z
M 1831 4666 
L 2547 4666 
L 4325 0 
L 3669 0 
L 3244 1197 
L 1141 1197 
L 716 0 
L 50 0 
L 1831 4666 
z
" transform="scale(0.015625)"/>
       <path id="DejaVuSans-62" d="M 3116 1747 
Q 3116 2381 2855 2742 
Q 2594 3103 2138 3103 
Q 1681 3103 1420 2742 
Q 1159 2381 1159 1747 
Q 1159 1113 1420 752 
Q 1681 391 2138 391 
Q 2594 391 2855 752 
Q 3116 1113 3116 1747 
z
M 1159 2969 
Q 1341 3281 1617 3432 
Q 1894 3584 2278 3584 
Q 2916 3584 3314 3078 
Q 3713 2572 3713 1747 
Q 3713 922 3314 415 
Q 2916 -91 2278 -91 
Q 1894 -91 1617 61 
Q 1341 213 1159 525 
L 1159 0 
L 581 0 
L 581 4863 
L 1159 4863 
L 1159 2969 
z
" transform="scale(0.015625)"/>
       <path id="DejaVuSans-73" d="M 2834 3397 
L 2834 2853 
Q 2591 2978 2328 3040 
Q 2066 3103 1784 3103 
Q 1356 3103 1142 2972 
Q 928 2841 928 2578 
Q 928 2378 1081 2264 
Q 1234 2150 1697 2047 
L 1894 2003 
Q 2506 1872 2764 1633 
Q 3022 1394 3022 966 
Q 3022 478 2636 193 
Q 2250 -91 1575 -91 
Q 1294 -91 989 -36 
Q 684 19 347 128 
L 347 722 
Q 666 556 975 473 
Q 1284 391 1588 391 
Q 1994 391 2212 530 
Q 2431 669 2431 922 
Q 2431 1156 2273 1281 
Q 2116 1406 1581 1522 
L 1381 1569 
Q 847 1681 609 1914 
Q 372 2147 372 2553 
Q 372 3047 722 3315 
Q 1072 3584 1716 3584 
Q 2034 3584 2315 3537 
Q 2597 3491 2834 3397 
z
" transform="scale(0.015625)"/>
       <path id="DejaVuSans-6f" d="M 1959 3097 
Q 1497 3097 1228 2736 
Q 959 2375 959 1747 
Q 959 1119 1226 758 
Q 1494 397 1959 397 
Q 2419 397 2687 759 
Q 2956 1122 2956 1747 
Q 2956 2369 2687 2733 
Q 2419 3097 1959 3097 
z
M 1959 3584 
Q 2709 3584 3137 3096 
Q 3566 2609 3566 1747 
Q 3566 888 3137 398 
Q 2709 -91 1959 -91 
Q 1206 -91 779 398 
Q 353 888 353 1747 
Q 353 2609 779 3096 
Q 1206 3584 1959 3584 
z
" transform="scale(0.015625)"/>
       <path id="DejaVuSans-70" d="M 1159 525 
L 1159 -1331 
L 581 -1331 
L 581 3500 
L 1159 3500 
L 1159 2969 
Q 1341 3281 1617 3432 
Q 1894 3584 2278 3584 
Q 2916 3584 3314 3078 
Q 3713 2572 3713 1747 
Q 3713 922 3314 415 
Q 2916 -91 2278 -91 
Q 1894 -91 1617 61 
Q 1341 213 1159 525 
z
M 3116 1747 
Q 3116 2381 2855 2742 
Q 2594 3103 2138 3103 
Q 1681 3103 1420 2742 
Q 1159 2381 1159 1747 
Q 1159 1113 1420 752 
Q 1681 391 2138 391 
Q 2594 391 2855 752 
Q 3116 1113 3116 1747 
z
" transform="scale(0.015625)"/>
       <path id="DejaVuSans-74" d="M 1172 4494 
L 1172 3500 
L 2356 3500 
L 2356 3053 
L 1172 3053 
L 1172 1153 
Q 1172 725 1289 603 
Q 1406 481 1766 481 
L 2356 481 
L 2356 0 
L 1766 0 
Q 1100 0 847 248 
Q 594 497 594 1153 
L 594 3053 
L 172 3053 
L 172 3500 
L 594 3500 
L 594 4494 
L 1172 4494 
z
" transform="scale(0.015625)"/>
       <path id="DejaVuSans-69" d="M 603 3500 
L 1178 3500 
L 1178 0 
L 603 0 
L 603 3500 
z
M 603 4863 
L 1178 4863 
L 1178 4134 
L 603 4134 
L 603 4863 
z
" transform="scale(0.015625)"/>
      </defs>
      <use xlink:href="#DejaVuSans-41"/>
      <use xlink:href="#DejaVuSans-62" x="68.408203"/>
      <use xlink:href="#DejaVuSans-73" x="131.884766"/>
      <use xlink:href="#DejaVuSans-6f" x="183.984375"/>
      <use xlink:href="#DejaVuSans-72" x="245.166016"/>
      <use xlink:href="#DejaVuSans-70" x="286.279297"/>
      <use xlink:href="#DejaVuSans-74" x="349.755859"/>
      <use xlink:href="#DejaVuSans-69" x="388.964844"/>
      <use xlink:href="#DejaVuSans-6f" x="416.748047"/>
      <use xlink:href="#DejaVuSans-6e" x="477.929688"/>
     </g>
    </g>
   </g>
   <g id="line2d_25">
    <path d="M -1 224.341815 
L 56.177591 224.359206 
L 91.881734 224.33911 
L 163.310734 224.049676 
L 164.01926 225.335631 
L 164.740285 220.276555 
L 165.448812 222.19839 
L 166.170194 229.353502 
L 167.600102 221.41612 
L 168.308986 223.984584 
L 169.017869 223.620068 
L 169.739251 223.796802 
L 170.448134 222.732319 
L 171.878757 223.335248 
L 172.600497 224.964361 
L 173.309737 225.269109 
L 174.01862 220.250008 
L 175.449957 224.785279 
L 176.171697 225.102617 
L 176.881294 224.190676 
L 177.590534 223.683804 
L 178.312631 221.069416 
L 179.022228 223.334035 
L 179.731469 225.131705 
L 180.453923 225.128204 
L 181.16352 223.438392 
L 181.885617 220.72063 
L 182.595571 225.786686 
L 183.305169 227.062219 
L 184.027622 221.215084 
L 184.737577 219.710087 
L 185.447532 221.70914 
L 186.169985 224.454644 
L 186.87994 224.964928 
L 187.590252 221.218167 
L 188.312705 221.077195 
L 189.023017 224.146893 
L 189.732972 226.384324 
L 190.45614 225.780857 
L 191.166451 223.01015 
L 191.876763 221.53801 
L 192.599574 221.74556 
L 194.020554 224.603567 
L 194.731223 223.608498 
L 195.454391 223.324653 
L 196.16506 221.560935 
L 196.875372 225.87868 
L 197.598897 226.052478 
L 198.309565 220.750005 
L 199.020234 221.244464 
L 199.73126 222.031628 
L 200.454785 224.062863 
L 201.165811 223.993864 
L 201.876837 224.484657 
L 202.587863 224.265803 
L 203.311388 222.6614 
L 204.022771 223.784764 
L 204.733797 220.614506 
L 205.444823 222.865008 
L 206.169062 225.834301 
L 206.880088 222.485228 
L 207.591471 219.809899 
L 208.302854 221.75232 
L 209.027094 225.720493 
L 209.738477 223.008111 
L 210.450217 222.802292 
L 211.1616 224.587786 
L 211.87334 222.552752 
L 212.597937 218.389643 
L 213.30932 219.929062 
L 214.02106 225.044964 
L 214.733157 219.963661 
L 215.444897 220.787697 
L 216.169494 221.834152 
L 216.881591 218.987576 
L 217.593331 223.53503 
L 218.305428 222.83797 
L 219.017526 220.076675 
L 219.729623 221.24545 
L 220.454577 218.890018 
L 221.167031 218.855328 
L 221.879128 222.84105 
L 222.591583 218.646711 
L 223.304037 220.255477 
L 224.016492 220.293327 
L 224.728946 214.914017 
L 225.4539 215.497389 
L 226.166711 217.844123 
L 226.879165 216.096137 
L 227.591977 211.890353 
L 228.304431 211.571384 
L 229.017243 208.20102 
L 229.730054 201.279 
L 231.168534 192.064009 
L 232.594514 176.436912 
L 233.307683 163.221593 
L 234.020494 129.640339 
L 234.733663 83.310169 
L 235.446831 53.921542 
L 236.16 53.568 
L 236.873526 65.257852 
L 238.30022 135.026135 
L 239.013389 154.348098 
L 239.739771 151.080177 
L 240.453297 140.170448 
L 241.880348 174.846046 
L 242.593874 174.280212 
L 243.307757 156.157722 
L 244.021283 154.532472 
L 244.735165 160.125314 
L 246.162931 175.520877 
L 246.876814 171.513382 
L 247.590697 169.873133 
L 248.304937 166.316038 
L 249.01882 170.548866 
L 249.73306 185.450004 
L 250.446943 190.106943 
L 251.161183 192.013825 
L 251.875423 198.899054 
L 252.589663 204.218469 
L 253.30426 206.017733 
L 254.0185 209.243641 
L 254.733097 219.019207 
L 255.447337 225.084634 
L 256.161934 224.985904 
L 257.591128 230.370249 
L 259.02068 226.444633 
L 259.735277 224.076204 
L 260.450231 219.78955 
L 262.594737 186.935111 
L 263.296835 173.103415 
L 264.012146 150.188066 
L 264.7271 145.715493 
L 265.442412 154.251898 
L 266.157366 130.151837 
L 266.872677 125.378415 
L 267.587988 139.449343 
L 268.3033 144.723062 
L 269.018611 145.529399 
L 269.733923 144.482871 
L 270.449591 144.975539 
L 271.164902 141.563728 
L 271.880571 124.548874 
L 272.583383 127.954147 
L 273.299052 151.251756 
L 274.01472 152.386348 
L 274.730388 152.228637 
L 275.446057 154.784939 
L 276.162083 151.941285 
L 276.877751 152.975448 
L 277.593777 162.877361 
L 278.296946 167.838236 
L 280.445023 178.29116 
L 281.161405 182.274093 
L 281.877431 179.090889 
L 282.593814 180.100819 
L 283.29734 182.997511 
L 284.013723 181.36134 
L 284.730106 176.024109 
L 285.446488 182.296797 
L 286.162871 193.821232 
L 286.879611 194.721598 
L 287.583137 186.859241 
L 288.299877 187.397261 
L 289.733357 177.165667 
L 290.450097 196.471885 
L 291.15398 201.187595 
L 291.87072 187.235511 
L 292.587817 182.30053 
L 293.304557 185.662598 
L 294.021654 182.727843 
L 294.725894 185.381539 
L 295.442991 192.600132 
L 296.160088 188.41565 
L 296.877185 186.634021 
L 297.581783 183.888363 
L 298.29888 183.982407 
L 299.016334 186.149023 
L 299.733788 189.190402 
L 300.438386 190.401261 
L 301.15584 188.281315 
L 301.873294 179.925119 
L 302.590748 176.113839 
L 303.295703 174.669124 
L 304.013157 170.60831 
L 304.730968 184.175515 
L 305.448422 192.892908 
L 306.153377 196.134936 
L 307.589357 219.459419 
L 308.294312 222.625453 
L 309.012123 234.322713 
L 310.44846 250.661589 
L 311.153772 268.568966 
L 311.87194 274.400617 
L 312.590108 274.026817 
L 313.29542 275.033436 
L 314.013588 287.633905 
L 315.437426 265.327681 
L 316.155951 278.52374 
L 316.874477 282.541705 
L 317.580146 277.794803 
L 318.298671 279.741112 
L 319.017197 275.431307 
L 319.723223 263.405324 
L 320.441748 258.888607 
L 321.160631 255.941625 
L 321.866657 251.440869 
L 322.58554 243.357758 
L 323.304422 241.03422 
L 324.010449 236.975916 
L 324.729331 231.940133 
L 325.448214 228.853051 
L 326.154597 224.508748 
L 326.873837 221.208671 
L 327.58022 213.743163 
L 328.29946 211.049901 
L 329.0187 209.721371 
L 329.725083 209.68566 
L 330.444323 205.003658 
L 331.151063 199.149304 
L 331.870303 206.429602 
L 332.5899 207.427846 
L 334.016237 195.86725 
L 334.722977 195.717795 
L 336.149315 202.911674 
L 336.869268 199.066478 
L 337.588865 196.284908 
L 338.295963 203.049826 
L 339.015917 205.918304 
L 340.442968 206.019766 
L 341.150066 224.906139 
L 349.63988 229.761916 
L 357.685436 223.453781 
L 366.007404 212.249138 
L 374.593283 213.116366 
L 383.457001 218.982343 
L 392.58606 221.699748 
L 401.994029 219.375915 
L 411.66841 221.29283 
L 421.610273 227.460991 
L 431.832833 229.704913 
L 442.324305 232.844039 
L 453.098258 237.320595 
L 461.8 236.18029 
L 461.8 236.18029 
" clip-path="url(#pb9c1438500)" style="fill: none; stroke: #1e90ff; stroke-width: 1.5; stroke-linecap: square"/>
   </g>
   <g id="line2d_26">
    <path d="M 19.095343 222.635373 
L 30.479308 222.574349 
L 34.27302 222.759798 
L 45.657878 222.503816 
L 49.452483 222.494306 
L 57.042438 222.31282 
L 60.836597 222.400789 
L 64.632244 222.163827 
L 68.425807 222.381769 
L 76.014571 222.460227 
L 87.39928 222.236739 
L 91.192992 222.422187 
L 148.112369 222.214548 
L 151.905337 222.562462 
L 155.69756 223.072841 
L 163.280518 224.418529 
L 167.071252 225.253839 
L 170.863624 225.731725 
L 174.659569 225.429777 
L 189.840521 224.839354 
L 197.433454 224.008007 
L 201.22791 224.03099 
L 205.021473 224.248931 
L 208.82114 223.134657 
L 212.61783 222.670244 
L 216.415413 222.010872 
L 220.215378 220.831612 
L 223.808849 218.71058 
L 226.247557 215.566602 
L 228.487046 209.893336 
L 228.814131 207.520549 
L 229.918381 203.13591 
L 228.824254 205.311021 
L 230.671534 193.219109 
L 230.447547 196.095273 
L 229.796131 200.239725 
L 231.259815 186.422019 
L 231.109906 189.562582 
L 230.155225 190.880929 
L 231.891382 170.835084 
L 231.805092 175.865169 
L 231.983031 178.438144 
L 231.467139 180.609949 
L 231.456419 182.94945 
L 232.984802 156.106654 
L 232.511667 159.682036 
L 232.575685 168.714845 
L 233.375075 138.847414 
L 233.203057 146.813197 
L 233.509091 149.03493 
L 233.181396 151.540938 
L 232.858256 153.052658 
L 234.065359 119.647143 
L 233.935984 124.878791 
L 233.89348 134.155562 
L 233.569298 135.894734 
L 235.493967 92.272899 
L 235.582904 96.703498 
L 235.172204 101.55058 
L 234.344059 104.829776 
L 234.965476 107.232678 
L 234.322621 109.508778 
L 234.290463 116.52728 
L 236.093675 68.043661 
L 236.213048 73.360349 
L 236.043652 78.961332 
L 235.993629 89.879003 
L 236.480162 98.715796 
L 236.16 53.568 
L 236.138338 58.295741 
L 236.443657 60.673441 
L 236.1169 62.974743 
L 236.084742 69.993246 
L 237.980854 93.253262 
L 237.862347 96.112917 
L 238.149086 102.545751 
L 238.452127 105.420595 
L 238.126159 107.549684 
L 238.11544 109.889185 
L 238.421086 112.1954 
L 238.410367 114.534901 
L 238.23484 83.829745 
L 238.207148 89.873455 
L 239.02836 117.685143 
L 239.854783 121.354746 
L 239.94664 124.311351 
L 240.866409 130.612629 
L 240.844971 135.291631 
L 241.151957 137.305408 
L 241.141238 139.644909 
L 241.445247 142.308548 
L 241.120693 144.128952 
L 242.37514 146.400297 
L 243.527457 151.243462 
L 245.18916 153.362927 
L 246.125677 156.008735 
L 246.746797 158.476623 
L 246.860421 161.283707 
L 248.101707 166.427439 
L 248.912527 168.90135 
L 249.110386 171.727718 
L 250.152071 174.425251 
L 250.141441 176.745256 
L 250.445822 179.327662 
L 251.684786 184.978286 
L 251.663348 189.657287 
L 251.968354 192.103223 
L 251.767056 194.62841 
L 252.364563 197.648733 
L 253.326869 201.239084 
L 253.616926 204.975946 
L 254.427567 207.488849 
L 254.417072 209.77961 
L 254.971657 212.965753 
L 255.757942 216.193556 
L 255.954387 219.328609 
L 258.327529 222.826457 
L 257.901936 228.075867 
L 257.172135 229.609495 
L 260.80893 218.032981 
L 261.353526 214.197478 
L 260.793447 221.41226 
L 260.357531 224.532651 
L 261.8852 194.778512 
L 261.744182 197.950152 
L 261.681356 211.662226 
L 262.79288 176.112433 
L 262.461775 179.362533 
L 262.414134 189.760314 
L 262.614524 192.0343 
L 263.644097 157.938529 
L 263.483302 163.454799 
L 263.157333 165.583887 
L 263.126069 172.407431 
L 264.311883 143.648425 
L 264.254327 147.008314 
L 264.157161 154.412018 
L 265.01312 135.203209 
L 264.853129 140.544016 
L 265.703617 122.529327 
L 265.682306 127.180478 
L 265.532237 130.355854 
L 265.208874 131.916314 
L 266.896258 118.571513 
L 267.686176 115.748239 
L 268.145271 112.169643 
L 268.15666 109.683923 
L 271.143751 116.517626 
L 273.167302 120.328969 
L 273.468929 123.512497 
L 273.929409 126.533164 
L 274.395248 128.38408 
L 274.697769 131.37265 
L 274.68705 133.712151 
L 275.421078 139.143089 
L 276.122086 142.579059 
L 276.531947 145.144955 
L 276.362226 147.679811 
L 277.590598 150.712478 
L 278.386118 154.553906 
L 278.845736 157.762568 
L 279.465218 160.58788 
L 280.346502 163.786201 
L 284.013817 168.553436 
L 285.263946 171.76708 
L 287.771768 176.543719 
L 289.65853 178.839473 
L 292.649372 174.815881 
L 291.557173 178.542281 
L 293.794811 173.272856 
L 296.314833 175.386689 
L 298.940981 177.343207 
L 301.189557 174.287591 
L 303.133934 170.909976 
L 304.546416 173.197171 
L 305.165525 176.103716 
L 305.719786 179.360694 
L 305.770417 182.113348 
L 306.582547 188.902286 
L 306.514063 192.346683 
L 307.291058 195.301571 
L 306.966504 197.121975 
L 307.11166 199.948476 
L 307.575713 202.189309 
L 307.564994 204.528809 
L 307.869598 207.062476 
L 307.84816 211.741478 
L 308.25549 214.859756 
L 308.741875 223.729042 
L 308.661928 227.374923 
L 309.406914 230.414372 
L 309.456554 235.354994 
L 309.149027 238.388725 
L 309.018342 232.403899 
L 309.613854 240.460594 
L 309.91831 243.026754 
L 309.896872 247.705756 
L 309.696333 250.065228 
L 310.6097 253.162742 
L 310.28982 258.563829 
L 310.77957 262.097807 
L 311.555671 265.247653 
L 311.701051 268.025414 
L 311.500378 270.41413 
L 312.150588 273.434321 
L 311.820972 276.35949 
L 313.333544 284.407389 
L 313.318894 287.604706 
L 315.077284 290.312356 
L 315.685997 295.488 
L 317.937778 287.131734 
L 317.60578 290.576792 
L 319.364179 281.451221 
L 318.899084 284.367446 
L 320.07808 275.500484 
L 319.560699 277.99722 
L 320.763783 268.473845 
L 320.539944 271.317517 
L 319.898354 273.317425 
L 322.498659 257.909371 
L 323.292903 252.170099 
L 322.512951 254.790037 
L 324.143167 244.063362 
L 325.269706 234.814046 
L 325.120626 237.773576 
L 324.792454 240.383562 
L 324.153886 241.723861 
L 325.971688 231.464611 
L 326.580387 224.812295 
L 326.111335 228.591907 
L 327.283542 221.206629 
L 327.882772 216.620872 
L 326.787242 219.102346 
L 328.396242 213.005934 
L 330.344238 201.937289 
L 330.014919 204.797472 
L 331.860242 196.419015 
L 331.303906 199.530425 
L 333.126472 192.832362 
L 335.139205 190.639476 
L 337.351037 191.002183 
L 337.49664 193.731205 
L 340.159176 199.24829 
L 340.777839 202.252313 
L 341.708402 206.197844 
L 342.883943 211.887617 
L 344.060889 215.299186 
L 344.621529 219.135632 
L 345.240743 222.019431 
L 345.576702 224.611506 
L 346.355483 227.176477 
L 348.221402 234.021261 
L 349.473944 236.708517 
L 351.835389 238.925099 
L 354.995645 234.405336 
L 354.371155 237.602789 
L 356.618172 230.286302 
L 357.947282 227.764787 
L 358.806159 224.350901 
L 359.485469 220.69145 
L 360.421338 216.906026 
L 361.284384 212.582335 
L 360.322334 215.509089 
L 362.628289 209.132142 
L 362.894352 206.274717 
L 365.01924 202.608548 
L 368.29565 200.672437 
L 368.94863 196.186809 
L 369.464046 198.719947 
L 370.748923 203.55164 
L 371.872834 206.707113 
L 373.318798 208.588065 
L 377.106257 210.138222 
L 380.259197 212.144867 
L 383.095325 214.282277 
L 386.996944 218.522543 
L 390.33765 220.957621 
L 394.133 220.785646 
L 397.492494 219.120099 
L 400.264693 216.80617 
L 403.018968 213.80344 
L 406.189 212.079881 
L 406.834238 209.283892 
L 408.870369 213.486593 
L 410.60011 215.545544 
L 413.439364 217.0006 
L 414.376477 219.516435 
L 415.629957 221.998984 
L 418.770987 226.605075 
L 420.979073 227.785524 
L 424.454409 228.442914 
L 428.249461 228.335925 
L 432.047639 227.546581 
L 435.836736 228.739315 
L 439.62092 231.004319 
L 445.289156 236.156452 
L 449.07334 238.421456 
L 452.861841 239.744162 
L 456.656595 239.702159 
L 460.454029 239.07528 
L 461.8 238.496767 
L 461.8 238.496767 
" clip-path="url(#pb9c1438500)" style="fill: none; stroke: #dc143c; stroke-width: 1.5; stroke-linecap: square"/>
   </g>
   <g id="line2d_27">
    <path d="M 236.16 307.584 
L 236.16 41.472 
" clip-path="url(#pb9c1438500)" style="fill: none; stroke: #000000; stroke-linecap: square"/>
   </g>
   <g id="line2d_28">
    <path d="M 245.373696 307.584 
L 245.373696 41.472 
" clip-path="url(#pb9c1438500)" style="fill: none; stroke: #000000; stroke-width: 0.5; stroke-linecap: square"/>
   </g>
   <g id="line2d_29">
    <path d="M 257.872896 307.584 
L 257.872896 41.472 
" clip-path="url(#pb9c1438500)" style="fill: none; stroke: #000000; stroke-width: 0.5; stroke-linecap: square"/>
   </g>
   <g id="line2d_30">
    <path d="M 269.407872 307.584 
L 269.407872 41.472 
" clip-path="url(#pb9c1438500)" style="fill: none; stroke: #000000; stroke-width: 0.5; stroke-linecap: square"/>
   </g>
   <g id="patch_3">
    <path d="M 57.6 307.584 
L 57.6 41.472 
" style="fill: none; stroke: #000000; stroke-width: 0.8; stroke-linejoin: miter; stroke-linecap: square"/>
   </g>
   <g id="patch_4">
    <path d="M 414.72 307.584 
L 414.72 41.472 
" style="fill: none; stroke: #000000; stroke-width: 0.8; stroke-linejoin: miter; stroke-linecap: square"/>
   </g>
   <g id="patch_5">
    <path d="M 57.6 307.584 
L 414.72 307.584 
" style="fill: none; stroke: #000000; stroke-width: 0.8; stroke-linejoin: miter; stroke-linecap: square"/>
   </g>
   <g id="patch_6">
    <path d="M 57.6 41.472 
L 414.72 41.472 
" style="fill: none; stroke: #000000; stroke-width: 0.8; stroke-linejoin: miter; stroke-linecap: square"/>
   </g>
   <g id="text_15">
    <!-- 5989.0 -->
    <g transform="translate(197.598175 53.568)scale(0.1 -0.1)">
     <use xlink:href="#DejaVuSans-35"/>
     <use xlink:href="#DejaVuSans-39" x="63.623047"/>
     <use xlink:href="#DejaVuSans-38" x="127.246094"/>
     <use xlink:href="#DejaVuSans-39" x="190.869141"/>
     <use xlink:href="#DejaVuSans-2e" x="254.492188"/>
     <use xlink:href="#DejaVuSans-30" x="286.279297"/>
    </g>
   </g>
   <g id="text_16">
    <!-- 5989.0 -->
    <g transform="translate(197.598175 53.568)scale(0.1 -0.1)">
     <use xlink:href="#DejaVuSans-35"/>
     <use xlink:href="#DejaVuSans-39" x="63.623047"/>
     <use xlink:href="#DejaVuSans-38" x="127.246094"/>
     <use xlink:href="#DejaVuSans-39" x="190.869141"/>
     <use xlink:href="#DejaVuSans-2e" x="254.492188"/>
     <use xlink:href="#DejaVuSans-30" x="286.279297"/>
    </g>
   </g>
   <g id="text_17">
    <!-- Cr -->
    <g transform="translate(120.703687 30.161409)scale(0.15 -0.15)">
     <defs>
      <path id="DejaVuSans-43" d="M 4122 4306 
L 4122 3641 
Q 3803 3938 3442 4084 
Q 3081 4231 2675 4231 
Q 1875 4231 1450 3742 
Q 1025 3253 1025 2328 
Q 1025 1406 1450 917 
Q 1875 428 2675 428 
Q 3081 428 3442 575 
Q 3803 722 4122 1019 
L 4122 359 
Q 3791 134 3420 21 
Q 3050 -91 2638 -91 
Q 1578 -91 968 557 
Q 359 1206 359 2328 
Q 359 3453 968 4101 
Q 1578 4750 2638 4750 
Q 3056 4750 3426 4639 
Q 3797 4528 4122 4306 
z
" transform="scale(0.015625)"/>
     </defs>
     <use xlink:href="#DejaVuSans-43"/>
     <use xlink:href="#DejaVuSans-72" x="69.824219"/>
    </g>
   </g>
   <g id="text_18">
    <!-- 5991.58 -->
    <g transform="translate(224.697133 25.480091)scale(0.1 -0.1)">
     <defs>
      <path id="DejaVuSans-31" d="M 794 531 
L 1825 531 
L 1825 4091 
L 703 3866 
L 703 4441 
L 1819 4666 
L 2450 4666 
L 2450 531 
L 3481 531 
L 3481 0 
L 794 0 
L 794 531 
z
" transform="scale(0.015625)"/>
     </defs>
     <use xlink:href="#DejaVuSans-35"/>
     <use xlink:href="#DejaVuSans-39" x="63.623047"/>
     <use xlink:href="#DejaVuSans-39" x="127.246094"/>
     <use xlink:href="#DejaVuSans-31" x="190.869141"/>
     <use xlink:href="#DejaVuSans-2e" x="254.492188"/>
     <use xlink:href="#DejaVuSans-35" x="286.279297"/>
     <use xlink:href="#DejaVuSans-38" x="349.902344"/>
    </g>
   </g>
   <g id="text_19">
    <!-- 5995.08 -->
    <g transform="translate(237.196333 37.183387)scale(0.1 -0.1)">
     <use xlink:href="#DejaVuSans-35"/>
     <use xlink:href="#DejaVuSans-39" x="63.623047"/>
     <use xlink:href="#DejaVuSans-39" x="127.246094"/>
     <use xlink:href="#DejaVuSans-35" x="190.869141"/>
     <use xlink:href="#DejaVuSans-2e" x="254.492188"/>
     <use xlink:href="#DejaVuSans-30" x="286.279297"/>
     <use xlink:href="#DejaVuSans-38" x="349.902344"/>
    </g>
   </g>
   <g id="text_20">
    <!-- 5998.31 -->
    <g transform="translate(248.731309 13.776796)scale(0.1 -0.1)">
     <defs>
      <path id="DejaVuSans-33" d="M 2597 2516 
Q 3050 2419 3304 2112 
Q 3559 1806 3559 1356 
Q 3559 666 3084 287 
Q 2609 -91 1734 -91 
Q 1441 -91 1130 -33 
Q 819 25 488 141 
L 488 750 
Q 750 597 1062 519 
Q 1375 441 1716 441 
Q 2309 441 2620 675 
Q 2931 909 2931 1356 
Q 2931 1769 2642 2001 
Q 2353 2234 1838 2234 
L 1294 2234 
L 1294 2753 
L 1863 2753 
Q 2328 2753 2575 2939 
Q 2822 3125 2822 3475 
Q 2822 3834 2567 4026 
Q 2313 4219 1838 4219 
Q 1578 4219 1281 4162 
Q 984 4106 628 3988 
L 628 4550 
Q 988 4650 1302 4700 
Q 1616 4750 1894 4750 
Q 2613 4750 3031 4423 
Q 3450 4097 3450 3541 
Q 3450 3153 3228 2886 
Q 3006 2619 2597 2516 
z
" transform="scale(0.015625)"/>
     </defs>
     <use xlink:href="#DejaVuSans-35"/>
     <use xlink:href="#DejaVuSans-39" x="63.623047"/>
     <use xlink:href="#DejaVuSans-39" x="127.246094"/>
     <use xlink:href="#DejaVuSans-38" x="190.869141"/>
     <use xlink:href="#DejaVuSans-2e" x="254.492188"/>
     <use xlink:href="#DejaVuSans-33" x="286.279297"/>
     <use xlink:href="#DejaVuSans-31" x="349.902344"/>
    </g>
   </g>
   <g id="legend_1">
    <g id="patch_7">
     <path d="M 301.091875 78.82825 
L 407.72 78.82825 
Q 409.72 78.82825 409.72 76.82825 
L 409.72 48.472 
Q 409.72 46.472 407.72 46.472 
L 301.091875 46.472 
Q 299.091875 46.472 299.091875 48.472 
L 299.091875 76.82825 
Q 299.091875 78.82825 301.091875 78.82825 
z
" style="fill: #ffffff; opacity: 0.8; stroke: #cccccc; stroke-linejoin: miter"/>
    </g>
    <g id="line2d_31">
     <path d="M 303.091875 54.570437 
L 313.091875 54.570437 
L 323.091875 54.570437 
" style="fill: none; stroke: #1e90ff; stroke-width: 1.5; stroke-linecap: square"/>
    </g>
    <g id="text_21">
     <!-- Hephaestus -->
     <g transform="translate(331.091875 58.070437)scale(0.1 -0.1)">
      <defs>
       <path id="DejaVuSans-48" d="M 628 4666 
L 1259 4666 
L 1259 2753 
L 3553 2753 
L 3553 4666 
L 4184 4666 
L 4184 0 
L 3553 0 
L 3553 2222 
L 1259 2222 
L 1259 0 
L 628 0 
L 628 4666 
z
" transform="scale(0.015625)"/>
       <path id="DejaVuSans-68" d="M 3513 2113 
L 3513 0 
L 2938 0 
L 2938 2094 
Q 2938 2591 2744 2837 
Q 2550 3084 2163 3084 
Q 1697 3084 1428 2787 
Q 1159 2491 1159 1978 
L 1159 0 
L 581 0 
L 581 4863 
L 1159 4863 
L 1159 2956 
Q 1366 3272 1645 3428 
Q 1925 3584 2291 3584 
Q 2894 3584 3203 3211 
Q 3513 2838 3513 2113 
z
" transform="scale(0.015625)"/>
       <path id="DejaVuSans-61" d="M 2194 1759 
Q 1497 1759 1228 1600 
Q 959 1441 959 1056 
Q 959 750 1161 570 
Q 1363 391 1709 391 
Q 2188 391 2477 730 
Q 2766 1069 2766 1631 
L 2766 1759 
L 2194 1759 
z
M 3341 1997 
L 3341 0 
L 2766 0 
L 2766 531 
Q 2569 213 2275 61 
Q 1981 -91 1556 -91 
Q 1019 -91 701 211 
Q 384 513 384 1019 
Q 384 1609 779 1909 
Q 1175 2209 1959 2209 
L 2766 2209 
L 2766 2266 
Q 2766 2663 2505 2880 
Q 2244 3097 1772 3097 
Q 1472 3097 1187 3025 
Q 903 2953 641 2809 
L 641 3341 
Q 956 3463 1253 3523 
Q 1550 3584 1831 3584 
Q 2591 3584 2966 3190 
Q 3341 2797 3341 1997 
z
" transform="scale(0.015625)"/>
       <path id="DejaVuSans-75" d="M 544 1381 
L 544 3500 
L 1119 3500 
L 1119 1403 
Q 1119 906 1312 657 
Q 1506 409 1894 409 
Q 2359 409 2629 706 
Q 2900 1003 2900 1516 
L 2900 3500 
L 3475 3500 
L 3475 0 
L 2900 0 
L 2900 538 
Q 2691 219 2414 64 
Q 2138 -91 1772 -91 
Q 1169 -91 856 284 
Q 544 659 544 1381 
z
M 1991 3584 
L 1991 3584 
z
" transform="scale(0.015625)"/>
      </defs>
      <use xlink:href="#DejaVuSans-48"/>
      <use xlink:href="#DejaVuSans-65" x="75.195312"/>
      <use xlink:href="#DejaVuSans-70" x="136.71875"/>
      <use xlink:href="#DejaVuSans-68" x="200.195312"/>
      <use xlink:href="#DejaVuSans-61" x="263.574219"/>
      <use xlink:href="#DejaVuSans-65" x="324.853516"/>
      <use xlink:href="#DejaVuSans-73" x="386.376953"/>
      <use xlink:href="#DejaVuSans-74" x="438.476562"/>
      <use xlink:href="#DejaVuSans-75" x="477.685547"/>
      <use xlink:href="#DejaVuSans-73" x="541.064453"/>
     </g>
    </g>
    <g id="line2d_32">
     <path d="M 303.091875 69.248562 
L 313.091875 69.248562 
L 323.091875 69.248562 
" style="fill: none; stroke: #dc143c; stroke-width: 1.5; stroke-linecap: square"/>
    </g>
    <g id="text_22">
     <!-- XAFS Materials -->
     <g transform="translate(331.091875 72.748562)scale(0.1 -0.1)">
      <defs>
       <path id="DejaVuSans-58" d="M 403 4666 
L 1081 4666 
L 2241 2931 
L 3406 4666 
L 4084 4666 
L 2584 2425 
L 4184 0 
L 3506 0 
L 2194 1984 
L 872 0 
L 191 0 
L 1856 2491 
L 403 4666 
z
" transform="scale(0.015625)"/>
       <path id="DejaVuSans-46" d="M 628 4666 
L 3309 4666 
L 3309 4134 
L 1259 4134 
L 1259 2759 
L 3109 2759 
L 3109 2228 
L 1259 2228 
L 1259 0 
L 628 0 
L 628 4666 
z
" transform="scale(0.015625)"/>
       <path id="DejaVuSans-53" d="M 3425 4513 
L 3425 3897 
Q 3066 4069 2747 4153 
Q 2428 4238 2131 4238 
Q 1616 4238 1336 4038 
Q 1056 3838 1056 3469 
Q 1056 3159 1242 3001 
Q 1428 2844 1947 2747 
L 2328 2669 
Q 3034 2534 3370 2195 
Q 3706 1856 3706 1288 
Q 3706 609 3251 259 
Q 2797 -91 1919 -91 
Q 1588 -91 1214 -16 
Q 841 59 441 206 
L 441 856 
Q 825 641 1194 531 
Q 1563 422 1919 422 
Q 2459 422 2753 634 
Q 3047 847 3047 1241 
Q 3047 1584 2836 1778 
Q 2625 1972 2144 2069 
L 1759 2144 
Q 1053 2284 737 2584 
Q 422 2884 422 3419 
Q 422 4038 858 4394 
Q 1294 4750 2059 4750 
Q 2388 4750 2728 4690 
Q 3069 4631 3425 4513 
z
" transform="scale(0.015625)"/>
       <path id="DejaVuSans-4d" d="M 628 4666 
L 1569 4666 
L 2759 1491 
L 3956 4666 
L 4897 4666 
L 4897 0 
L 4281 0 
L 4281 4097 
L 3078 897 
L 2444 897 
L 1241 4097 
L 1241 0 
L 628 0 
L 628 4666 
z
" transform="scale(0.015625)"/>
       <path id="DejaVuSans-6c" d="M 603 4863 
L 1178 4863 
L 1178 0 
L 603 0 
L 603 4863 
z
" transform="scale(0.015625)"/>
      </defs>
      <use xlink:href="#DejaVuSans-58"/>
      <use xlink:href="#DejaVuSans-41" x="68.505859"/>
      <use xlink:href="#DejaVuSans-46" x="136.914062"/>
      <use xlink:href="#DejaVuSans-53" x="192.683594"/>
      <use xlink:href="#DejaVuSans-20" x="256.160156"/>
      <use xlink:href="#DejaVuSans-4d" x="287.947266"/>
      <use xlink:href="#DejaVuSans-61" x="374.226562"/>
      <use xlink:href="#DejaVuSans-74" x="435.505859"/>
      <use xlink:href="#DejaVuSans-65" x="474.714844"/>
      <use xlink:href="#DejaVuSans-72" x="536.238281"/>
      <use xlink:href="#DejaVuSans-69" x="577.351562"/>
      <use xlink:href="#DejaVuSans-61" x="605.134766"/>
      <use xlink:href="#DejaVuSans-6c" x="666.414062"/>
      <use xlink:href="#DejaVuSans-73" x="694.197266"/>
     </g>
    </g>
   </g>
  </g>
 </g>
 <defs>
  <clipPath id="pb9c1438500">
   <rect x="57.6" y="41.472" width="357.12" height="266.112"/>
  </clipPath>
 </defs>
</svg>
