<?xml version="1.0" encoding="utf-8" standalone="no"?>
<!DOCTYPE svg PUBLIC "-//W3C//DTD SVG 1.1//EN"
  "http://www.w3.org/Graphics/SVG/1.1/DTD/svg11.dtd">
<svg xmlns:xlink="http://www.w3.org/1999/xlink" width="460.8pt" height="345.6pt" viewBox="0 0 460.8 345.6" xmlns="http://www.w3.org/2000/svg" version="1.1">
 <metadata>
  <rdf:RDF xmlns:dc="http://purl.org/dc/elements/1.1/" xmlns:cc="http://creativecommons.org/ns#" xmlns:rdf="http://www.w3.org/1999/02/22-rdf-syntax-ns#">
   <cc:Work>
    <dc:type rdf:resource="http://purl.org/dc/dcmitype/StillImage"/>
    <dc:date>2021-11-30T22:26:47.734393</dc:date>
    <dc:format>image/svg+xml</dc:format>
    <dc:creator>
     <cc:Agent>
      <dc:title>Matplotlib v3.5.0, https://matplotlib.org/</dc:title>
     </cc:Agent>
    </dc:creator>
   </cc:Work>
  </rdf:RDF>
 </metadata>
 <defs>
  <style type="text/css">*{stroke-linejoin: round; stroke-linecap: butt}</style>
 </defs>
 <g id="figure_1">
  <g id="patch_1">
   <path d="M 0 345.6 
L 460.8 345.6 
L 460.8 0 
L 0 0 
z
" style="fill: #ffffff"/>
  </g>
  <g id="axes_1">
   <g id="patch_2">
    <path d="M 57.6 307.584 
L 414.72 307.584 
L 414.72 41.472 
L 57.6 41.472 
z
" style="fill: #ffffff"/>
   </g>
   <g id="matplotlib.axis_1">
    <g id="xtick_1">
     <g id="line2d_1">
      <path d="M 96.8832 307.584 
L 96.8832 41.472 
" clip-path="url(#p820d3504df)" style="fill: none; stroke: #b0b0b0; stroke-width: 0.8; stroke-linecap: square"/>
     </g>
     <g id="line2d_2">
      <defs>
       <path id="m664bac3011" d="M 0 0 
L 0 3.5 
" style="stroke: #000000; stroke-width: 0.8"/>
      </defs>
      <g>
       <use xlink:href="#m664bac3011" x="96.8832" y="307.584" style="stroke: #000000; stroke-width: 0.8"/>
      </g>
     </g>
     <g id="text_1">
      <!-- 6500 -->
      <g transform="translate(84.1582 322.182437)scale(0.1 -0.1)">
       <defs>
        <path id="DejaVuSans-36" d="M 2113 2584 
Q 1688 2584 1439 2293 
Q 1191 2003 1191 1497 
Q 1191 994 1439 701 
Q 1688 409 2113 409 
Q 2538 409 2786 701 
Q 3034 994 3034 1497 
Q 3034 2003 2786 2293 
Q 2538 2584 2113 2584 
z
M 3366 4563 
L 3366 3988 
Q 3128 4100 2886 4159 
Q 2644 4219 2406 4219 
Q 1781 4219 1451 3797 
Q 1122 3375 1075 2522 
Q 1259 2794 1537 2939 
Q 1816 3084 2150 3084 
Q 2853 3084 3261 2657 
Q 3669 2231 3669 1497 
Q 3669 778 3244 343 
Q 2819 -91 2113 -91 
Q 1303 -91 875 529 
Q 447 1150 447 2328 
Q 447 3434 972 4092 
Q 1497 4750 2381 4750 
Q 2619 4750 2861 4703 
Q 3103 4656 3366 4563 
z
" transform="scale(0.015625)"/>
        <path id="DejaVuSans-35" d="M 691 4666 
L 3169 4666 
L 3169 4134 
L 1269 4134 
L 1269 2991 
Q 1406 3038 1543 3061 
Q 1681 3084 1819 3084 
Q 2600 3084 3056 2656 
Q 3513 2228 3513 1497 
Q 3513 744 3044 326 
Q 2575 -91 1722 -91 
Q 1428 -91 1123 -41 
Q 819 9 494 109 
L 494 744 
Q 775 591 1075 516 
Q 1375 441 1709 441 
Q 2250 441 2565 725 
Q 2881 1009 2881 1497 
Q 2881 1984 2565 2268 
Q 2250 2553 1709 2553 
Q 1456 2553 1204 2497 
Q 953 2441 691 2322 
L 691 4666 
z
" transform="scale(0.015625)"/>
        <path id="DejaVuSans-30" d="M 2034 4250 
Q 1547 4250 1301 3770 
Q 1056 3291 1056 2328 
Q 1056 1369 1301 889 
Q 1547 409 2034 409 
Q 2525 409 2770 889 
Q 3016 1369 3016 2328 
Q 3016 3291 2770 3770 
Q 2525 4250 2034 4250 
z
M 2034 4750 
Q 2819 4750 3233 4129 
Q 3647 3509 3647 2328 
Q 3647 1150 3233 529 
Q 2819 -91 2034 -91 
Q 1250 -91 836 529 
Q 422 1150 422 2328 
Q 422 3509 836 4129 
Q 1250 4750 2034 4750 
z
" transform="scale(0.015625)"/>
       </defs>
       <use xlink:href="#DejaVuSans-36"/>
       <use xlink:href="#DejaVuSans-35" x="63.623047"/>
       <use xlink:href="#DejaVuSans-30" x="127.246094"/>
       <use xlink:href="#DejaVuSans-30" x="190.869141"/>
      </g>
     </g>
    </g>
    <g id="xtick_2">
     <g id="line2d_3">
      <path d="M 168.3072 307.584 
L 168.3072 41.472 
" clip-path="url(#p820d3504df)" style="fill: none; stroke: #b0b0b0; stroke-width: 0.8; stroke-linecap: square"/>
     </g>
     <g id="line2d_4">
      <g>
       <use xlink:href="#m664bac3011" x="168.3072" y="307.584" style="stroke: #000000; stroke-width: 0.8"/>
      </g>
     </g>
     <g id="text_2">
      <!-- 6520 -->
      <g transform="translate(155.5822 322.182437)scale(0.1 -0.1)">
       <defs>
        <path id="DejaVuSans-32" d="M 1228 531 
L 3431 531 
L 3431 0 
L 469 0 
L 469 531 
Q 828 903 1448 1529 
Q 2069 2156 2228 2338 
Q 2531 2678 2651 2914 
Q 2772 3150 2772 3378 
Q 2772 3750 2511 3984 
Q 2250 4219 1831 4219 
Q 1534 4219 1204 4116 
Q 875 4013 500 3803 
L 500 4441 
Q 881 4594 1212 4672 
Q 1544 4750 1819 4750 
Q 2544 4750 2975 4387 
Q 3406 4025 3406 3419 
Q 3406 3131 3298 2873 
Q 3191 2616 2906 2266 
Q 2828 2175 2409 1742 
Q 1991 1309 1228 531 
z
" transform="scale(0.015625)"/>
       </defs>
       <use xlink:href="#DejaVuSans-36"/>
       <use xlink:href="#DejaVuSans-35" x="63.623047"/>
       <use xlink:href="#DejaVuSans-32" x="127.246094"/>
       <use xlink:href="#DejaVuSans-30" x="190.869141"/>
      </g>
     </g>
    </g>
    <g id="xtick_3">
     <g id="line2d_5">
      <path d="M 239.7312 307.584 
L 239.7312 41.472 
" clip-path="url(#p820d3504df)" style="fill: none; stroke: #b0b0b0; stroke-width: 0.8; stroke-linecap: square"/>
     </g>
     <g id="line2d_6">
      <g>
       <use xlink:href="#m664bac3011" x="239.7312" y="307.584" style="stroke: #000000; stroke-width: 0.8"/>
      </g>
     </g>
     <g id="text_3">
      <!-- 6540 -->
      <g transform="translate(227.0062 322.182437)scale(0.1 -0.1)">
       <defs>
        <path id="DejaVuSans-34" d="M 2419 4116 
L 825 1625 
L 2419 1625 
L 2419 4116 
z
M 2253 4666 
L 3047 4666 
L 3047 1625 
L 3713 1625 
L 3713 1100 
L 3047 1100 
L 3047 0 
L 2419 0 
L 2419 1100 
L 313 1100 
L 313 1709 
L 2253 4666 
z
" transform="scale(0.015625)"/>
       </defs>
       <use xlink:href="#DejaVuSans-36"/>
       <use xlink:href="#DejaVuSans-35" x="63.623047"/>
       <use xlink:href="#DejaVuSans-34" x="127.246094"/>
       <use xlink:href="#DejaVuSans-30" x="190.869141"/>
      </g>
     </g>
    </g>
    <g id="xtick_4">
     <g id="line2d_7">
      <path d="M 311.1552 307.584 
L 311.1552 41.472 
" clip-path="url(#p820d3504df)" style="fill: none; stroke: #b0b0b0; stroke-width: 0.8; stroke-linecap: square"/>
     </g>
     <g id="line2d_8">
      <g>
       <use xlink:href="#m664bac3011" x="311.1552" y="307.584" style="stroke: #000000; stroke-width: 0.8"/>
      </g>
     </g>
     <g id="text_4">
      <!-- 6560 -->
      <g transform="translate(298.4302 322.182437)scale(0.1 -0.1)">
       <use xlink:href="#DejaVuSans-36"/>
       <use xlink:href="#DejaVuSans-35" x="63.623047"/>
       <use xlink:href="#DejaVuSans-36" x="127.246094"/>
       <use xlink:href="#DejaVuSans-30" x="190.869141"/>
      </g>
     </g>
    </g>
    <g id="xtick_5">
     <g id="line2d_9">
      <path d="M 382.5792 307.584 
L 382.5792 41.472 
" clip-path="url(#p820d3504df)" style="fill: none; stroke: #b0b0b0; stroke-width: 0.8; stroke-linecap: square"/>
     </g>
     <g id="line2d_10">
      <g>
       <use xlink:href="#m664bac3011" x="382.5792" y="307.584" style="stroke: #000000; stroke-width: 0.8"/>
      </g>
     </g>
     <g id="text_5">
      <!-- 6580 -->
      <g transform="translate(369.8542 322.182437)scale(0.1 -0.1)">
       <defs>
        <path id="DejaVuSans-38" d="M 2034 2216 
Q 1584 2216 1326 1975 
Q 1069 1734 1069 1313 
Q 1069 891 1326 650 
Q 1584 409 2034 409 
Q 2484 409 2743 651 
Q 3003 894 3003 1313 
Q 3003 1734 2745 1975 
Q 2488 2216 2034 2216 
z
M 1403 2484 
Q 997 2584 770 2862 
Q 544 3141 544 3541 
Q 544 4100 942 4425 
Q 1341 4750 2034 4750 
Q 2731 4750 3128 4425 
Q 3525 4100 3525 3541 
Q 3525 3141 3298 2862 
Q 3072 2584 2669 2484 
Q 3125 2378 3379 2068 
Q 3634 1759 3634 1313 
Q 3634 634 3220 271 
Q 2806 -91 2034 -91 
Q 1263 -91 848 271 
Q 434 634 434 1313 
Q 434 1759 690 2068 
Q 947 2378 1403 2484 
z
M 1172 3481 
Q 1172 3119 1398 2916 
Q 1625 2713 2034 2713 
Q 2441 2713 2670 2916 
Q 2900 3119 2900 3481 
Q 2900 3844 2670 4047 
Q 2441 4250 2034 4250 
Q 1625 4250 1398 4047 
Q 1172 3844 1172 3481 
z
" transform="scale(0.015625)"/>
       </defs>
       <use xlink:href="#DejaVuSans-36"/>
       <use xlink:href="#DejaVuSans-35" x="63.623047"/>
       <use xlink:href="#DejaVuSans-38" x="127.246094"/>
       <use xlink:href="#DejaVuSans-30" x="190.869141"/>
      </g>
     </g>
    </g>
    <g id="text_6">
     <!-- Energy (eV) -->
     <g transform="translate(206.66625 335.860562)scale(0.1 -0.1)">
      <defs>
       <path id="DejaVuSans-45" d="M 628 4666 
L 3578 4666 
L 3578 4134 
L 1259 4134 
L 1259 2753 
L 3481 2753 
L 3481 2222 
L 1259 2222 
L 1259 531 
L 3634 531 
L 3634 0 
L 628 0 
L 628 4666 
z
" transform="scale(0.015625)"/>
       <path id="DejaVuSans-6e" d="M 3513 2113 
L 3513 0 
L 2938 0 
L 2938 2094 
Q 2938 2591 2744 2837 
Q 2550 3084 2163 3084 
Q 1697 3084 1428 2787 
Q 1159 2491 1159 1978 
L 1159 0 
L 581 0 
L 581 3500 
L 1159 3500 
L 1159 2956 
Q 1366 3272 1645 3428 
Q 1925 3584 2291 3584 
Q 2894 3584 3203 3211 
Q 3513 2838 3513 2113 
z
" transform="scale(0.015625)"/>
       <path id="DejaVuSans-65" d="M 3597 1894 
L 3597 1613 
L 953 1613 
Q 991 1019 1311 708 
Q 1631 397 2203 397 
Q 2534 397 2845 478 
Q 3156 559 3463 722 
L 3463 178 
Q 3153 47 2828 -22 
Q 2503 -91 2169 -91 
Q 1331 -91 842 396 
Q 353 884 353 1716 
Q 353 2575 817 3079 
Q 1281 3584 2069 3584 
Q 2775 3584 3186 3129 
Q 3597 2675 3597 1894 
z
M 3022 2063 
Q 3016 2534 2758 2815 
Q 2500 3097 2075 3097 
Q 1594 3097 1305 2825 
Q 1016 2553 972 2059 
L 3022 2063 
z
" transform="scale(0.015625)"/>
       <path id="DejaVuSans-72" d="M 2631 2963 
Q 2534 3019 2420 3045 
Q 2306 3072 2169 3072 
Q 1681 3072 1420 2755 
Q 1159 2438 1159 1844 
L 1159 0 
L 581 0 
L 581 3500 
L 1159 3500 
L 1159 2956 
Q 1341 3275 1631 3429 
Q 1922 3584 2338 3584 
Q 2397 3584 2469 3576 
Q 2541 3569 2628 3553 
L 2631 2963 
z
" transform="scale(0.015625)"/>
       <path id="DejaVuSans-67" d="M 2906 1791 
Q 2906 2416 2648 2759 
Q 2391 3103 1925 3103 
Q 1463 3103 1205 2759 
Q 947 2416 947 1791 
Q 947 1169 1205 825 
Q 1463 481 1925 481 
Q 2391 481 2648 825 
Q 2906 1169 2906 1791 
z
M 3481 434 
Q 3481 -459 3084 -895 
Q 2688 -1331 1869 -1331 
Q 1566 -1331 1297 -1286 
Q 1028 -1241 775 -1147 
L 775 -588 
Q 1028 -725 1275 -790 
Q 1522 -856 1778 -856 
Q 2344 -856 2625 -561 
Q 2906 -266 2906 331 
L 2906 616 
Q 2728 306 2450 153 
Q 2172 0 1784 0 
Q 1141 0 747 490 
Q 353 981 353 1791 
Q 353 2603 747 3093 
Q 1141 3584 1784 3584 
Q 2172 3584 2450 3431 
Q 2728 3278 2906 2969 
L 2906 3500 
L 3481 3500 
L 3481 434 
z
" transform="scale(0.015625)"/>
       <path id="DejaVuSans-79" d="M 2059 -325 
Q 1816 -950 1584 -1140 
Q 1353 -1331 966 -1331 
L 506 -1331 
L 506 -850 
L 844 -850 
Q 1081 -850 1212 -737 
Q 1344 -625 1503 -206 
L 1606 56 
L 191 3500 
L 800 3500 
L 1894 763 
L 2988 3500 
L 3597 3500 
L 2059 -325 
z
" transform="scale(0.015625)"/>
       <path id="DejaVuSans-20" transform="scale(0.015625)"/>
       <path id="DejaVuSans-28" d="M 1984 4856 
Q 1566 4138 1362 3434 
Q 1159 2731 1159 2009 
Q 1159 1288 1364 580 
Q 1569 -128 1984 -844 
L 1484 -844 
Q 1016 -109 783 600 
Q 550 1309 550 2009 
Q 550 2706 781 3412 
Q 1013 4119 1484 4856 
L 1984 4856 
z
" transform="scale(0.015625)"/>
       <path id="DejaVuSans-56" d="M 1831 0 
L 50 4666 
L 709 4666 
L 2188 738 
L 3669 4666 
L 4325 4666 
L 2547 0 
L 1831 0 
z
" transform="scale(0.015625)"/>
       <path id="DejaVuSans-29" d="M 513 4856 
L 1013 4856 
Q 1481 4119 1714 3412 
Q 1947 2706 1947 2009 
Q 1947 1309 1714 600 
Q 1481 -109 1013 -844 
L 513 -844 
Q 928 -128 1133 580 
Q 1338 1288 1338 2009 
Q 1338 2731 1133 3434 
Q 928 4138 513 4856 
z
" transform="scale(0.015625)"/>
      </defs>
      <use xlink:href="#DejaVuSans-45"/>
      <use xlink:href="#DejaVuSans-6e" x="63.183594"/>
      <use xlink:href="#DejaVuSans-65" x="126.5625"/>
      <use xlink:href="#DejaVuSans-72" x="188.085938"/>
      <use xlink:href="#DejaVuSans-67" x="227.449219"/>
      <use xlink:href="#DejaVuSans-79" x="290.925781"/>
      <use xlink:href="#DejaVuSans-20" x="350.105469"/>
      <use xlink:href="#DejaVuSans-28" x="381.892578"/>
      <use xlink:href="#DejaVuSans-65" x="420.90625"/>
      <use xlink:href="#DejaVuSans-56" x="482.429688"/>
      <use xlink:href="#DejaVuSans-29" x="550.837891"/>
     </g>
    </g>
   </g>
   <g id="matplotlib.axis_2">
    <g id="ytick_1">
     <g id="line2d_11">
      <path d="M 57.6 297.501026 
L 414.72 297.501026 
" clip-path="url(#p820d3504df)" style="fill: none; stroke: #b0b0b0; stroke-width: 0.8; stroke-linecap: square"/>
     </g>
     <g id="line2d_12">
      <defs>
       <path id="m6a9f4bf2e1" d="M 0 0 
L -3.5 0 
" style="stroke: #000000; stroke-width: 0.8"/>
      </defs>
      <g>
       <use xlink:href="#m6a9f4bf2e1" x="57.6" y="297.501026" style="stroke: #000000; stroke-width: 0.8"/>
      </g>
     </g>
     <g id="text_7">
      <!-- −0.025 -->
      <g transform="translate(13.592188 301.300245)scale(0.1 -0.1)">
       <defs>
        <path id="DejaVuSans-2212" d="M 678 2272 
L 4684 2272 
L 4684 1741 
L 678 1741 
L 678 2272 
z
" transform="scale(0.015625)"/>
        <path id="DejaVuSans-2e" d="M 684 794 
L 1344 794 
L 1344 0 
L 684 0 
L 684 794 
z
" transform="scale(0.015625)"/>
       </defs>
       <use xlink:href="#DejaVuSans-2212"/>
       <use xlink:href="#DejaVuSans-30" x="83.789062"/>
       <use xlink:href="#DejaVuSans-2e" x="147.412109"/>
       <use xlink:href="#DejaVuSans-30" x="179.199219"/>
       <use xlink:href="#DejaVuSans-32" x="242.822266"/>
       <use xlink:href="#DejaVuSans-35" x="306.445312"/>
      </g>
     </g>
    </g>
    <g id="ytick_2">
     <g id="line2d_13">
      <path d="M 57.6 267.305643 
L 414.72 267.305643 
" clip-path="url(#p820d3504df)" style="fill: none; stroke: #b0b0b0; stroke-width: 0.8; stroke-linecap: square"/>
     </g>
     <g id="line2d_14">
      <g>
       <use xlink:href="#m6a9f4bf2e1" x="57.6" y="267.305643" style="stroke: #000000; stroke-width: 0.8"/>
      </g>
     </g>
     <g id="text_8">
      <!-- 0.000 -->
      <g transform="translate(21.971875 271.104862)scale(0.1 -0.1)">
       <use xlink:href="#DejaVuSans-30"/>
       <use xlink:href="#DejaVuSans-2e" x="63.623047"/>
       <use xlink:href="#DejaVuSans-30" x="95.410156"/>
       <use xlink:href="#DejaVuSans-30" x="159.033203"/>
       <use xlink:href="#DejaVuSans-30" x="222.65625"/>
      </g>
     </g>
    </g>
    <g id="ytick_3">
     <g id="line2d_15">
      <path d="M 57.6 237.11026 
L 414.72 237.11026 
" clip-path="url(#p820d3504df)" style="fill: none; stroke: #b0b0b0; stroke-width: 0.8; stroke-linecap: square"/>
     </g>
     <g id="line2d_16">
      <g>
       <use xlink:href="#m6a9f4bf2e1" x="57.6" y="237.11026" style="stroke: #000000; stroke-width: 0.8"/>
      </g>
     </g>
     <g id="text_9">
      <!-- 0.025 -->
      <g transform="translate(21.971875 240.909479)scale(0.1 -0.1)">
       <use xlink:href="#DejaVuSans-30"/>
       <use xlink:href="#DejaVuSans-2e" x="63.623047"/>
       <use xlink:href="#DejaVuSans-30" x="95.410156"/>
       <use xlink:href="#DejaVuSans-32" x="159.033203"/>
       <use xlink:href="#DejaVuSans-35" x="222.65625"/>
      </g>
     </g>
    </g>
    <g id="ytick_4">
     <g id="line2d_17">
      <path d="M 57.6 206.914877 
L 414.72 206.914877 
" clip-path="url(#p820d3504df)" style="fill: none; stroke: #b0b0b0; stroke-width: 0.8; stroke-linecap: square"/>
     </g>
     <g id="line2d_18">
      <g>
       <use xlink:href="#m6a9f4bf2e1" x="57.6" y="206.914877" style="stroke: #000000; stroke-width: 0.8"/>
      </g>
     </g>
     <g id="text_10">
      <!-- 0.050 -->
      <g transform="translate(21.971875 210.714096)scale(0.1 -0.1)">
       <use xlink:href="#DejaVuSans-30"/>
       <use xlink:href="#DejaVuSans-2e" x="63.623047"/>
       <use xlink:href="#DejaVuSans-30" x="95.410156"/>
       <use xlink:href="#DejaVuSans-35" x="159.033203"/>
       <use xlink:href="#DejaVuSans-30" x="222.65625"/>
      </g>
     </g>
    </g>
    <g id="ytick_5">
     <g id="line2d_19">
      <path d="M 57.6 176.719495 
L 414.72 176.719495 
" clip-path="url(#p820d3504df)" style="fill: none; stroke: #b0b0b0; stroke-width: 0.8; stroke-linecap: square"/>
     </g>
     <g id="line2d_20">
      <g>
       <use xlink:href="#m6a9f4bf2e1" x="57.6" y="176.719495" style="stroke: #000000; stroke-width: 0.8"/>
      </g>
     </g>
     <g id="text_11">
      <!-- 0.075 -->
      <g transform="translate(21.971875 180.518713)scale(0.1 -0.1)">
       <defs>
        <path id="DejaVuSans-37" d="M 525 4666 
L 3525 4666 
L 3525 4397 
L 1831 0 
L 1172 0 
L 2766 4134 
L 525 4134 
L 525 4666 
z
" transform="scale(0.015625)"/>
       </defs>
       <use xlink:href="#DejaVuSans-30"/>
       <use xlink:href="#DejaVuSans-2e" x="63.623047"/>
       <use xlink:href="#DejaVuSans-30" x="95.410156"/>
       <use xlink:href="#DejaVuSans-37" x="159.033203"/>
       <use xlink:href="#DejaVuSans-35" x="222.65625"/>
      </g>
     </g>
    </g>
    <g id="ytick_6">
     <g id="line2d_21">
      <path d="M 57.6 146.524112 
L 414.72 146.524112 
" clip-path="url(#p820d3504df)" style="fill: none; stroke: #b0b0b0; stroke-width: 0.8; stroke-linecap: square"/>
     </g>
     <g id="line2d_22">
      <g>
       <use xlink:href="#m6a9f4bf2e1" x="57.6" y="146.524112" style="stroke: #000000; stroke-width: 0.8"/>
      </g>
     </g>
     <g id="text_12">
      <!-- 0.100 -->
      <g transform="translate(21.971875 150.32333)scale(0.1 -0.1)">
       <defs>
        <path id="DejaVuSans-31" d="M 794 531 
L 1825 531 
L 1825 4091 
L 703 3866 
L 703 4441 
L 1819 4666 
L 2450 4666 
L 2450 531 
L 3481 531 
L 3481 0 
L 794 0 
L 794 531 
z
" transform="scale(0.015625)"/>
       </defs>
       <use xlink:href="#DejaVuSans-30"/>
       <use xlink:href="#DejaVuSans-2e" x="63.623047"/>
       <use xlink:href="#DejaVuSans-31" x="95.410156"/>
       <use xlink:href="#DejaVuSans-30" x="159.033203"/>
       <use xlink:href="#DejaVuSans-30" x="222.65625"/>
      </g>
     </g>
    </g>
    <g id="ytick_7">
     <g id="line2d_23">
      <path d="M 57.6 116.328729 
L 414.72 116.328729 
" clip-path="url(#p820d3504df)" style="fill: none; stroke: #b0b0b0; stroke-width: 0.8; stroke-linecap: square"/>
     </g>
     <g id="line2d_24">
      <g>
       <use xlink:href="#m6a9f4bf2e1" x="57.6" y="116.328729" style="stroke: #000000; stroke-width: 0.8"/>
      </g>
     </g>
     <g id="text_13">
      <!-- 0.125 -->
      <g transform="translate(21.971875 120.127948)scale(0.1 -0.1)">
       <use xlink:href="#DejaVuSans-30"/>
       <use xlink:href="#DejaVuSans-2e" x="63.623047"/>
       <use xlink:href="#DejaVuSans-31" x="95.410156"/>
       <use xlink:href="#DejaVuSans-32" x="159.033203"/>
       <use xlink:href="#DejaVuSans-35" x="222.65625"/>
      </g>
     </g>
    </g>
    <g id="ytick_8">
     <g id="line2d_25">
      <path d="M 57.6 86.133346 
L 414.72 86.133346 
" clip-path="url(#p820d3504df)" style="fill: none; stroke: #b0b0b0; stroke-width: 0.8; stroke-linecap: square"/>
     </g>
     <g id="line2d_26">
      <g>
       <use xlink:href="#m6a9f4bf2e1" x="57.6" y="86.133346" style="stroke: #000000; stroke-width: 0.8"/>
      </g>
     </g>
     <g id="text_14">
      <!-- 0.150 -->
      <g transform="translate(21.971875 89.932565)scale(0.1 -0.1)">
       <use xlink:href="#DejaVuSans-30"/>
       <use xlink:href="#DejaVuSans-2e" x="63.623047"/>
       <use xlink:href="#DejaVuSans-31" x="95.410156"/>
       <use xlink:href="#DejaVuSans-35" x="159.033203"/>
       <use xlink:href="#DejaVuSans-30" x="222.65625"/>
      </g>
     </g>
    </g>
    <g id="ytick_9">
     <g id="line2d_27">
      <path d="M 57.6 55.937963 
L 414.72 55.937963 
" clip-path="url(#p820d3504df)" style="fill: none; stroke: #b0b0b0; stroke-width: 0.8; stroke-linecap: square"/>
     </g>
     <g id="line2d_28">
      <g>
       <use xlink:href="#m6a9f4bf2e1" x="57.6" y="55.937963" style="stroke: #000000; stroke-width: 0.8"/>
      </g>
     </g>
     <g id="text_15">
      <!-- 0.175 -->
      <g transform="translate(21.971875 59.737182)scale(0.1 -0.1)">
       <use xlink:href="#DejaVuSans-30"/>
       <use xlink:href="#DejaVuSans-2e" x="63.623047"/>
       <use xlink:href="#DejaVuSans-31" x="95.410156"/>
       <use xlink:href="#DejaVuSans-37" x="159.033203"/>
       <use xlink:href="#DejaVuSans-35" x="222.65625"/>
      </g>
     </g>
    </g>
    <g id="text_16">
     <!-- Absorption -->
     <g transform="translate(7.5125 201.593625)rotate(-90)scale(0.1 -0.1)">
      <defs>
       <path id="DejaVuSans-41" d="M 2188 4044 
L 1331 1722 
L 3047 1722 
L 2188 4044 
z
M 1831 4666 
L 2547 4666 
L 4325 0 
L 3669 0 
L 3244 1197 
L 1141 1197 
L 716 0 
L 50 0 
L 1831 4666 
z
" transform="scale(0.015625)"/>
       <path id="DejaVuSans-62" d="M 3116 1747 
Q 3116 2381 2855 2742 
Q 2594 3103 2138 3103 
Q 1681 3103 1420 2742 
Q 1159 2381 1159 1747 
Q 1159 1113 1420 752 
Q 1681 391 2138 391 
Q 2594 391 2855 752 
Q 3116 1113 3116 1747 
z
M 1159 2969 
Q 1341 3281 1617 3432 
Q 1894 3584 2278 3584 
Q 2916 3584 3314 3078 
Q 3713 2572 3713 1747 
Q 3713 922 3314 415 
Q 2916 -91 2278 -91 
Q 1894 -91 1617 61 
Q 1341 213 1159 525 
L 1159 0 
L 581 0 
L 581 4863 
L 1159 4863 
L 1159 2969 
z
" transform="scale(0.015625)"/>
       <path id="DejaVuSans-73" d="M 2834 3397 
L 2834 2853 
Q 2591 2978 2328 3040 
Q 2066 3103 1784 3103 
Q 1356 3103 1142 2972 
Q 928 2841 928 2578 
Q 928 2378 1081 2264 
Q 1234 2150 1697 2047 
L 1894 2003 
Q 2506 1872 2764 1633 
Q 3022 1394 3022 966 
Q 3022 478 2636 193 
Q 2250 -91 1575 -91 
Q 1294 -91 989 -36 
Q 684 19 347 128 
L 347 722 
Q 666 556 975 473 
Q 1284 391 1588 391 
Q 1994 391 2212 530 
Q 2431 669 2431 922 
Q 2431 1156 2273 1281 
Q 2116 1406 1581 1522 
L 1381 1569 
Q 847 1681 609 1914 
Q 372 2147 372 2553 
Q 372 3047 722 3315 
Q 1072 3584 1716 3584 
Q 2034 3584 2315 3537 
Q 2597 3491 2834 3397 
z
" transform="scale(0.015625)"/>
       <path id="DejaVuSans-6f" d="M 1959 3097 
Q 1497 3097 1228 2736 
Q 959 2375 959 1747 
Q 959 1119 1226 758 
Q 1494 397 1959 397 
Q 2419 397 2687 759 
Q 2956 1122 2956 1747 
Q 2956 2369 2687 2733 
Q 2419 3097 1959 3097 
z
M 1959 3584 
Q 2709 3584 3137 3096 
Q 3566 2609 3566 1747 
Q 3566 888 3137 398 
Q 2709 -91 1959 -91 
Q 1206 -91 779 398 
Q 353 888 353 1747 
Q 353 2609 779 3096 
Q 1206 3584 1959 3584 
z
" transform="scale(0.015625)"/>
       <path id="DejaVuSans-70" d="M 1159 525 
L 1159 -1331 
L 581 -1331 
L 581 3500 
L 1159 3500 
L 1159 2969 
Q 1341 3281 1617 3432 
Q 1894 3584 2278 3584 
Q 2916 3584 3314 3078 
Q 3713 2572 3713 1747 
Q 3713 922 3314 415 
Q 2916 -91 2278 -91 
Q 1894 -91 1617 61 
Q 1341 213 1159 525 
z
M 3116 1747 
Q 3116 2381 2855 2742 
Q 2594 3103 2138 3103 
Q 1681 3103 1420 2742 
Q 1159 2381 1159 1747 
Q 1159 1113 1420 752 
Q 1681 391 2138 391 
Q 2594 391 2855 752 
Q 3116 1113 3116 1747 
z
" transform="scale(0.015625)"/>
       <path id="DejaVuSans-74" d="M 1172 4494 
L 1172 3500 
L 2356 3500 
L 2356 3053 
L 1172 3053 
L 1172 1153 
Q 1172 725 1289 603 
Q 1406 481 1766 481 
L 2356 481 
L 2356 0 
L 1766 0 
Q 1100 0 847 248 
Q 594 497 594 1153 
L 594 3053 
L 172 3053 
L 172 3500 
L 594 3500 
L 594 4494 
L 1172 4494 
z
" transform="scale(0.015625)"/>
       <path id="DejaVuSans-69" d="M 603 3500 
L 1178 3500 
L 1178 0 
L 603 0 
L 603 3500 
z
M 603 4863 
L 1178 4863 
L 1178 4134 
L 603 4134 
L 603 4863 
z
" transform="scale(0.015625)"/>
      </defs>
      <use xlink:href="#DejaVuSans-41"/>
      <use xlink:href="#DejaVuSans-62" x="68.408203"/>
      <use xlink:href="#DejaVuSans-73" x="131.884766"/>
      <use xlink:href="#DejaVuSans-6f" x="183.984375"/>
      <use xlink:href="#DejaVuSans-72" x="245.166016"/>
      <use xlink:href="#DejaVuSans-70" x="286.279297"/>
      <use xlink:href="#DejaVuSans-74" x="349.755859"/>
      <use xlink:href="#DejaVuSans-69" x="388.964844"/>
      <use xlink:href="#DejaVuSans-6f" x="416.748047"/>
      <use xlink:href="#DejaVuSans-6e" x="477.929688"/>
     </g>
    </g>
   </g>
   <g id="line2d_29">
    <path d="M 56.6997 267.31158 
L 57.805344 266.95343 
L 59.922351 267.450171 
L 61.028352 267.391428 
L 62.13471 267.173133 
L 64.283858 267.31367 
L 65.358789 267.38389 
L 66.43372 267.227409 
L 69.659228 267.177173 
L 70.7663 267.475591 
L 71.841946 267.045154 
L 73.993236 267.245272 
L 75.100666 267.221447 
L 76.144884 267.503916 
L 77.189103 267.123248 
L 78.29689 267.023352 
L 79.404676 267.293794 
L 81.557752 267.401804 
L 82.634112 267.013462 
L 83.742612 266.985875 
L 84.819329 267.454053 
L 85.864262 267.003239 
L 86.97312 267.476799 
L 88.081978 267.465831 
L 89.127268 266.519263 
L 90.204699 267.057056 
L 91.313556 267.390464 
L 92.391345 267.34567 
L 93.468776 267.067482 
L 94.546564 267.133555 
L 95.624352 267.502837 
L 96.733924 267.384508 
L 97.812069 266.99907 
L 99.96836 267.375594 
L 101.078289 267.133641 
L 104.282369 267.158017 
L 105.392655 267.107739 
L 106.440088 267.192378 
L 107.487164 267.071211 
L 108.629591 267.200366 
L 109.740591 267.527426 
L 110.788381 267.066351 
L 114.058529 267.037896 
L 116.218034 267.473395 
L 117.297965 267.215776 
L 118.377896 266.835347 
L 119.489967 266.914121 
L 121.650543 267.321614 
L 122.730831 267.183883 
L 123.811476 266.850617 
L 124.892122 267.225827 
L 125.973124 267.225827 
L 127.053769 266.987072 
L 128.166555 267.061878 
L 129.247914 266.955405 
L 130.297133 267.311627 
L 133.605135 267.018495 
L 134.686495 267.148111 
L 135.768211 267.457143 
L 136.850285 266.779379 
L 137.932001 266.833202 
L 139.014075 267.321585 
L 140.096506 267.176024 
L 141.210363 266.877507 
L 142.292794 266.868864 
L 143.343441 267.030732 
L 144.458012 266.911022 
L 145.540443 267.130338 
L 146.623231 266.920964 
L 148.821304 267.206071 
L 149.904092 266.588839 
L 150.987594 267.150361 
L 152.070739 267.166287 
L 153.154241 266.71125 
L 154.269527 267.093814 
L 156.437245 267.076199 
L 157.552888 266.690791 
L 159.688823 266.968451 
L 161.889396 266.766582 
L 162.973613 266.838268 
L 164.058186 267.102816 
L 165.14276 266.671416 
L 166.22769 266.752931 
L 167.312264 267.192317 
L 168.397194 266.534486 
L 169.482482 266.389059 
L 170.599553 266.824911 
L 171.716625 266.67696 
L 172.801912 266.890198 
L 173.855416 266.92253 
L 174.941061 266.591017 
L 176.05849 266.640072 
L 177.144492 266.829935 
L 178.198353 266.513468 
L 179.284355 266.387387 
L 180.434281 266.740504 
L 181.52064 266.741432 
L 182.574858 266.439176 
L 184.779717 266.526781 
L 185.898574 266.162525 
L 186.953149 266.336893 
L 188.040223 266.357302 
L 189.15908 265.773799 
L 191.269302 266.450711 
L 192.388516 266.178554 
L 193.508087 266.467208 
L 194.595517 266.145426 
L 196.770735 265.840322 
L 197.890664 265.287482 
L 199.010592 265.509679 
L 200.066596 265.97592 
L 201.15474 265.698217 
L 202.275026 265.165013 
L 203.363171 265.308373 
L 204.419532 265.194429 
L 206.629033 265.160194 
L 207.717892 264.728786 
L 211.016609 264.165596 
L 212.105825 264.169061 
L 214.284614 263.567396 
L 215.406328 262.830953 
L 217.585832 262.086884 
L 219.765692 260.634467 
L 220.855622 259.8253 
L 224.158625 256.124801 
L 225.281053 253.595841 
L 227.430202 247.578057 
L 228.553344 241.342556 
L 229.612205 231.446369 
L 230.703206 218.827443 
L 231.826349 197.489594 
L 232.917708 161.726539 
L 235.068284 65.807239 
L 236.16 53.568 
L 237.315997 71.157511 
L 240.559361 155.904626 
L 241.651434 175.061883 
L 242.743864 183.77545 
L 243.835937 190.401946 
L 244.928367 202.148977 
L 246.053295 217.156093 
L 248.238513 251.221468 
L 249.3313 261.594238 
L 250.456585 262.188431 
L 251.58187 254.465314 
L 253.736018 228.472569 
L 254.829519 222.795558 
L 255.923021 221.947001 
L 257.016879 225.099154 
L 258.142522 233.573018 
L 259.268521 240.262392 
L 260.362737 242.538234 
L 261.456595 242.376587 
L 262.550811 237.971577 
L 264.739599 224.445837 
L 266.928388 211.745351 
L 270.245318 201.959276 
L 271.308108 201.45578 
L 272.435535 202.33153 
L 273.562963 202.141057 
L 274.65825 199.145006 
L 275.753537 201.028377 
L 276.849181 201.82851 
L 279.040827 206.197818 
L 280.10433 205.886227 
L 281.200332 208.656165 
L 282.360972 208.988421 
L 283.45733 212.321992 
L 284.52119 213.807686 
L 285.650047 213.481251 
L 286.778903 214.358323 
L 288.972334 217.55773 
L 290.06905 223.05906 
L 291.166122 224.798171 
L 292.263195 227.151288 
L 293.360268 237.840453 
L 294.457697 242.137256 
L 295.555127 247.769535 
L 297.750344 263.870785 
L 300.010199 273.728998 
L 301.108343 280.589818 
L 302.173989 284.229809 
L 303.272133 290.563974 
L 304.402775 290.800214 
L 305.468778 293.802332 
L 306.535139 295.488 
L 307.666138 290.22248 
L 308.797137 289.796464 
L 309.895995 287.772165 
L 310.994853 284.109859 
L 312.093711 281.839648 
L 313.225425 278.676792 
L 315.423855 275.004051 
L 316.491287 269.582801 
L 317.623 268.814698 
L 318.755071 264.932764 
L 319.822502 262.795988 
L 320.922432 265.050771 
L 322.05486 264.658429 
L 323.187287 261.629761 
L 324.287574 260.015388 
L 325.35572 264.552146 
L 326.488504 263.82156 
L 327.621289 261.895555 
L 328.689792 263.183365 
L 329.757938 261.97284 
L 330.891437 264.546336 
L 332.024579 265.607336 
L 333.093439 262.855588 
L 335.328296 265.590117 
L 336.430011 264.349246 
L 337.531369 264.261142 
L 338.633084 267.513145 
L 339.734799 267.373162 
L 340.869012 267.591106 
L 341.971085 265.601474 
L 343.040659 265.847969 
L 344.175587 269.538482 
L 345.277659 269.285571 
L 346.34759 266.52117 
L 347.482518 266.406954 
L 348.617802 267.984039 
L 349.720589 268.34801 
L 350.823375 267.325197 
L 351.926519 266.793073 
L 353.061804 268.773863 
L 354.197445 266.791554 
L 355.268448 265.92022 
L 356.339451 266.385252 
L 357.442952 269.08915 
L 358.57895 266.161037 
L 359.715306 265.283631 
L 360.818807 269.253543 
L 361.923022 266.575054 
L 363.02688 265.102946 
L 364.098597 264.700901 
L 365.202812 265.439002 
L 366.37238 263.992117 
L 367.476952 265.551883 
L 368.549027 265.244728 
L 369.653599 263.994742 
L 370.758528 264.422198 
L 371.895955 262.533161 
L 373.033382 265.279932 
L 374.106171 263.72121 
L 375.211457 261.692504 
L 376.349242 264.416329 
L 377.422387 264.0233 
L 378.528031 262.607409 
L 379.666172 264.447102 
L 380.771816 263.845827 
L 381.877816 263.848335 
L 382.983817 262.558217 
L 384.090175 259.4875 
L 385.196175 262.512199 
L 386.30289 263.94746 
L 387.409248 261.376054 
L 388.548461 261.760673 
L 389.687674 262.969108 
L 393.008175 260.263301 
L 394.115604 263.431518 
L 395.222676 263.4919 
L 396.330106 261.45547 
L 397.437535 262.909226 
L 398.577819 261.659967 
L 399.718103 265.261139 
L 400.793034 265.298216 
L 401.901178 263.908722 
L 403.041819 266.042352 
L 404.117107 266.91456 
L 405.225608 268.293141 
L 406.366606 266.973868 
L 407.474749 269.71427 
L 408.583607 269.460997 
L 409.692108 270.490043 
L 410.800965 275.78758 
L 411.909823 272.263326 
L 413.01868 271.212423 
L 414.127895 274.437431 
L 415.23711 274.82575 
L 415.23711 274.82575 
" clip-path="url(#p820d3504df)" style="fill: none; stroke: #1e90ff; stroke-width: 1.5; stroke-linecap: square"/>
   </g>
   <g id="line2d_30">
    <path d="M 22.149855 266.955695 
L 37.122614 266.944073 
L 40.863729 267.09733 
L 44.610237 266.844565 
L 48.348864 267.185217 
L 52.094957 266.963684 
L 59.581336 266.957874 
L 63.322867 267.079898 
L 67.066471 267.04576 
L 70.813394 266.761763 
L 74.553265 267.008717 
L 82.041303 266.877977 
L 89.528097 266.840934 
L 97.011573 267.05375 
L 100.7502 267.394401 
L 104.504174 266.579453 
L 108.246534 266.639012 
L 111.980183 267.354453 
L 115.722128 267.445245 
L 119.469466 267.130015 
L 123.221367 266.471229 
L 126.964556 266.468323 
L 130.699864 267.058834 
L 134.446372 266.806069 
L 138.190806 266.709467 
L 141.932337 266.831491 
L 145.677186 266.703656 
L 153.163565 266.697846 
L 164.396867 266.408038 
L 168.136738 266.654992 
L 171.883246 266.402227 
L 175.628095 266.274392 
L 179.375018 265.990395 
L 183.277567 264.66426 
L 186.050455 268.327621 
L 187.174988 265.859412 
L 190.606246 265.856749 
L 194.351924 265.666449 
L 198.101336 265.195057 
L 202.079482 264.277315 
L 205.447021 265.107017 
L 209.352059 263.593487 
L 213.111011 262.40375 
L 216.868097 261.354558 
L 219.397467 258.79937 
L 221.703495 256.284511 
L 223.532542 252.776172 
L 225.946819 245.465986 
L 226.58619 242.06119 
L 227.46706 238.36731 
L 228.678006 227.715106 
L 228.503344 230.800528 
L 228.900933 224.350789 
L 229.846022 209.55853 
L 229.678276 212.794307 
L 229.749954 216.791961 
L 229.275916 219.603218 
L 229.24605 221.851953 
L 231.265315 163.758669 
L 231.316869 169.942586 
L 231.139007 173.268943 
L 230.797416 175.502304 
L 230.645598 186.933372 
L 230.305459 189.057419 
L 230.275593 191.306154 
L 230.560149 193.367252 
L 230.531112 195.553522 
L 230.185996 198.052359 
L 230.096398 204.798563 
L 230.385931 206.484872 
L 232.443828 137.65396 
L 232.197794 140.521258 
L 232.108196 147.267463 
L 232.261508 149.815883 
L 231.736532 151.765174 
L 231.6768 156.262644 
L 231.954512 158.839077 
L 231.617069 160.760113 
L 231.537426 166.75674 
L 233.321912 112.920127 
L 233.262181 117.417597 
L 233.202449 121.915067 
L 232.717128 124.904802 
L 232.597665 133.899741 
L 231.950571 135.649241 
L 234.185771 94.849453 
L 233.879906 103.116383 
L 233.594853 105.790072 
L 233.872979 108.335273 
L 233.541758 109.787823 
L 235.411901 86.40914 
L 235.255728 90.339301 
L 234.318271 98.293805 
L 234.288405 100.54254 
L 236.253838 56.940995 
L 236.072891 60.12681 
L 236.178334 75.67407 
L 236.148385 77.929052 
L 236.336351 80.552403 
L 236.081187 82.988705 
L 236.16 53.568 
L 236.352469 62.562697 
L 236.631549 65.036063 
L 236.571817 69.533533 
L 238.021086 85.67316 
L 237.738467 91.295159 
L 238.321957 78.676935 
L 238.277159 82.050037 
L 238.399941 96.291782 
L 238.310343 103.037987 
L 238.589091 105.536339 
L 238.529359 110.033808 
L 238.812878 112.172988 
L 238.469628 114.531278 
L 238.439762 116.780013 
L 238.809056 122.526434 
L 239.031604 119.190672 
L 239.31085 126.348854 
L 238.997949 129.553511 
L 239.600549 132.719979 
L 239.435291 135.768361 
L 239.716528 138.079318 
L 239.494027 140.740466 
L 240.080062 143.588379 
L 239.886597 148.760566 
L 239.856732 151.009301 
L 240.570609 155.974652 
L 240.379384 158.629529 
L 240.349518 160.878264 
L 240.630133 163.23607 
L 240.529046 166.150104 
L 240.982343 169.597777 
L 240.817417 172.621173 
L 241.09658 175.088292 
L 241.067336 177.290179 
L 241.652002 180.241159 
L 242.362147 185.487601 
L 243.10589 188.204217 
L 243.651357 194.106662 
L 243.617343 196.667721 
L 244.198068 199.915409 
L 244.566691 203.475583 
L 244.738143 206.223876 
L 245.020624 208.441136 
L 244.517882 211.065023 
L 245.570239 214.031256 
L 245.501382 219.215839 
L 245.868013 222.925929 
L 246.348826 225.86762 
L 246.153039 228.866054 
L 247.020559 231.657531 
L 246.978747 234.80576 
L 247.436027 237.953601 
L 247.525956 240.577028 
L 248.978433 243.948968 
L 248.76651 249.336671 
L 248.202584 250.695705 
L 251.58608 240.868351 
L 252.18636 237.275301 
L 251.064731 246.570846 
L 252.959317 231.417342 
L 252.470086 234.701555 
L 254.901817 226.687213 
L 254.729937 228.953093 
L 256.948308 226.327875 
L 257.230374 228.576367 
L 257.347142 231.527711 
L 258.093166 234.072548 
L 258.99495 236.632881 
L 258.657507 238.553917 
L 259.348007 240.246608 
L 262.137503 234.881444 
L 261.166033 237.568159 
L 263.913693 227.971523 
L 263.142158 229.696135 
L 264.717284 223.83327 
L 265.451786 220.199782 
L 266.745974 216.700781 
L 267.4192 212.983638 
L 268.847844 209.426531 
L 270.425975 205.79792 
L 274.050208 201.703701 
L 276.304713 201.577023 
L 276.708068 204.087771 
L 278.220277 210.008205 
L 281.069979 213.866281 
L 283.027853 212.065792 
L 284.823598 214.420192 
L 286.511209 217.534953 
L 287.222515 220.345291 
L 288.06158 222.930658 
L 288.398069 225.778765 
L 290.254565 228.256261 
L 291.516813 230.517378 
L 292.725551 233.452258 
L 293.144088 237.168553 
L 293.263967 239.885654 
L 293.5423 242.415238 
L 293.93747 243.976537 
L 294.238175 246.387422 
L 295.140006 249.615229 
L 296.357656 255.905323 
L 296.570866 258.64109 
L 297.925117 264.71156 
L 298.50381 268.112287 
L 298.622817 270.894975 
L 299.647382 275.953781 
L 299.931938 278.014879 
L 300.025352 280.375954 
L 300.741137 282.848981 
L 301.82925 285.471634 
L 302.543045 288.094577 
L 304.680138 289.575997 
L 307.313164 285.926489 
L 306.954566 289.440379 
L 309.542112 282.504844 
L 311.38716 279.804958 
L 314.256417 273.131553 
L 315.884131 270.019572 
L 317.851877 267.475751 
L 321.322817 264.485185 
L 325.39384 263.284795 
L 329.144081 262.750938 
L 332.876486 263.560076 
L 336.647527 264.815357 
L 340.33217 265.865465 
L 343.432828 267.268503 
L 347.18224 266.797111 
L 350.929992 266.450649 
L 354.671523 266.572674 
L 358.423838 265.882655 
L 362.167028 265.87975 
L 365.921002 265.064801 
L 369.984005 264.468238 
L 373.433929 263.060115 
L 381.154672 262.184085 
L 384.357787 262.583155 
L 388.422864 261.830429 
L 392.168958 261.608897 
L 395.906755 262.012013 
L 399.634596 263.164707 
L 401.633329 265.333787 
L 405.200434 266.845776 
L 408.338662 268.775269 
L 410.183591 270.781615 
L 412.603023 273.148916 
L 415.273945 274.027588 
L 418.843746 272.987911 
L 422.599795 272.016801 
L 426.349206 271.545409 
L 430.092396 271.542503 
L 437.573383 271.942714 
L 441.321135 271.596252 
L 445.070961 271.093628 
L 452.593429 268.370596 
L 460.117555 265.522635 
L 461.8 265.143438 
L 461.8 265.143438 
" clip-path="url(#p820d3504df)" style="fill: none; stroke: #dc143c; stroke-width: 1.5; stroke-linecap: square"/>
   </g>
   <g id="line2d_31">
    <path d="M 236.16 307.584 
L 236.16 41.472 
" clip-path="url(#p820d3504df)" style="fill: none; stroke: #000000; stroke-linecap: square"/>
   </g>
   <g id="line2d_32">
    <path d="M 255.8016 307.584 
L 255.8016 41.472 
" clip-path="url(#p820d3504df)" style="fill: none; stroke: #000000; stroke-width: 0.5; stroke-linecap: square"/>
   </g>
   <g id="line2d_33">
    <path d="M 274.37184 307.584 
L 274.37184 41.472 
" clip-path="url(#p820d3504df)" style="fill: none; stroke: #000000; stroke-width: 0.5; stroke-linecap: square"/>
   </g>
   <g id="patch_3">
    <path d="M 57.6 307.584 
L 57.6 41.472 
" style="fill: none; stroke: #000000; stroke-width: 0.8; stroke-linejoin: miter; stroke-linecap: square"/>
   </g>
   <g id="patch_4">
    <path d="M 414.72 307.584 
L 414.72 41.472 
" style="fill: none; stroke: #000000; stroke-width: 0.8; stroke-linejoin: miter; stroke-linecap: square"/>
   </g>
   <g id="patch_5">
    <path d="M 57.6 307.584 
L 414.72 307.584 
" style="fill: none; stroke: #000000; stroke-width: 0.8; stroke-linejoin: miter; stroke-linecap: square"/>
   </g>
   <g id="patch_6">
    <path d="M 57.6 41.472 
L 414.72 41.472 
" style="fill: none; stroke: #000000; stroke-width: 0.8; stroke-linejoin: miter; stroke-linecap: square"/>
   </g>
   <g id="text_17">
    <!-- 6539.0 -->
    <g transform="translate(197.598175 53.568)scale(0.1 -0.1)">
     <defs>
      <path id="DejaVuSans-33" d="M 2597 2516 
Q 3050 2419 3304 2112 
Q 3559 1806 3559 1356 
Q 3559 666 3084 287 
Q 2609 -91 1734 -91 
Q 1441 -91 1130 -33 
Q 819 25 488 141 
L 488 750 
Q 750 597 1062 519 
Q 1375 441 1716 441 
Q 2309 441 2620 675 
Q 2931 909 2931 1356 
Q 2931 1769 2642 2001 
Q 2353 2234 1838 2234 
L 1294 2234 
L 1294 2753 
L 1863 2753 
Q 2328 2753 2575 2939 
Q 2822 3125 2822 3475 
Q 2822 3834 2567 4026 
Q 2313 4219 1838 4219 
Q 1578 4219 1281 4162 
Q 984 4106 628 3988 
L 628 4550 
Q 988 4650 1302 4700 
Q 1616 4750 1894 4750 
Q 2613 4750 3031 4423 
Q 3450 4097 3450 3541 
Q 3450 3153 3228 2886 
Q 3006 2619 2597 2516 
z
" transform="scale(0.015625)"/>
      <path id="DejaVuSans-39" d="M 703 97 
L 703 672 
Q 941 559 1184 500 
Q 1428 441 1663 441 
Q 2288 441 2617 861 
Q 2947 1281 2994 2138 
Q 2813 1869 2534 1725 
Q 2256 1581 1919 1581 
Q 1219 1581 811 2004 
Q 403 2428 403 3163 
Q 403 3881 828 4315 
Q 1253 4750 1959 4750 
Q 2769 4750 3195 4129 
Q 3622 3509 3622 2328 
Q 3622 1225 3098 567 
Q 2575 -91 1691 -91 
Q 1453 -91 1209 -44 
Q 966 3 703 97 
z
M 1959 2075 
Q 2384 2075 2632 2365 
Q 2881 2656 2881 3163 
Q 2881 3666 2632 3958 
Q 2384 4250 1959 4250 
Q 1534 4250 1286 3958 
Q 1038 3666 1038 3163 
Q 1038 2656 1286 2365 
Q 1534 2075 1959 2075 
z
" transform="scale(0.015625)"/>
     </defs>
     <use xlink:href="#DejaVuSans-36"/>
     <use xlink:href="#DejaVuSans-35" x="63.623047"/>
     <use xlink:href="#DejaVuSans-33" x="127.246094"/>
     <use xlink:href="#DejaVuSans-39" x="190.869141"/>
     <use xlink:href="#DejaVuSans-2e" x="254.492188"/>
     <use xlink:href="#DejaVuSans-30" x="286.279297"/>
    </g>
   </g>
   <g id="text_18">
    <!-- 6539.0 -->
    <g transform="translate(197.598175 53.568)scale(0.1 -0.1)">
     <use xlink:href="#DejaVuSans-36"/>
     <use xlink:href="#DejaVuSans-35" x="63.623047"/>
     <use xlink:href="#DejaVuSans-33" x="127.246094"/>
     <use xlink:href="#DejaVuSans-39" x="190.869141"/>
     <use xlink:href="#DejaVuSans-2e" x="254.492188"/>
     <use xlink:href="#DejaVuSans-30" x="286.279297"/>
    </g>
   </g>
   <g id="text_19">
    <!-- Mn -->
    <g transform="translate(117.799781 29.376)scale(0.15 -0.15)">
     <defs>
      <path id="DejaVuSans-4d" d="M 628 4666 
L 1569 4666 
L 2759 1491 
L 3956 4666 
L 4897 4666 
L 4897 0 
L 4281 0 
L 4281 4097 
L 3078 897 
L 2444 897 
L 1241 4097 
L 1241 0 
L 628 0 
L 628 4666 
z
" transform="scale(0.015625)"/>
     </defs>
     <use xlink:href="#DejaVuSans-4d"/>
     <use xlink:href="#DejaVuSans-6e" x="86.279297"/>
    </g>
   </g>
   <g id="text_20">
    <!-- 6544.5 -->
    <g transform="translate(238.306287 24.5376)scale(0.1 -0.1)">
     <use xlink:href="#DejaVuSans-36"/>
     <use xlink:href="#DejaVuSans-35" x="63.623047"/>
     <use xlink:href="#DejaVuSans-34" x="127.246094"/>
     <use xlink:href="#DejaVuSans-34" x="190.869141"/>
     <use xlink:href="#DejaVuSans-2e" x="254.492188"/>
     <use xlink:href="#DejaVuSans-35" x="286.279297"/>
    </g>
   </g>
   <g id="text_21">
    <!-- 6549.7 -->
    <g transform="translate(256.876527 36.6336)scale(0.1 -0.1)">
     <use xlink:href="#DejaVuSans-36"/>
     <use xlink:href="#DejaVuSans-35" x="63.623047"/>
     <use xlink:href="#DejaVuSans-34" x="127.246094"/>
     <use xlink:href="#DejaVuSans-39" x="190.869141"/>
     <use xlink:href="#DejaVuSans-2e" x="254.492188"/>
     <use xlink:href="#DejaVuSans-37" x="286.279297"/>
    </g>
   </g>
   <g id="legend_1">
    <g id="patch_7">
     <path d="M 301.091875 78.82825 
L 407.72 78.82825 
Q 409.72 78.82825 409.72 76.82825 
L 409.72 48.472 
Q 409.72 46.472 407.72 46.472 
L 301.091875 46.472 
Q 299.091875 46.472 299.091875 48.472 
L 299.091875 76.82825 
Q 299.091875 78.82825 301.091875 78.82825 
z
" style="fill: #ffffff; opacity: 0.8; stroke: #cccccc; stroke-linejoin: miter"/>
    </g>
    <g id="line2d_34">
     <path d="M 303.091875 54.570437 
L 313.091875 54.570437 
L 323.091875 54.570437 
" style="fill: none; stroke: #1e90ff; stroke-width: 1.5; stroke-linecap: square"/>
    </g>
    <g id="text_22">
     <!-- Hephaestus -->
     <g transform="translate(331.091875 58.070437)scale(0.1 -0.1)">
      <defs>
       <path id="DejaVuSans-48" d="M 628 4666 
L 1259 4666 
L 1259 2753 
L 3553 2753 
L 3553 4666 
L 4184 4666 
L 4184 0 
L 3553 0 
L 3553 2222 
L 1259 2222 
L 1259 0 
L 628 0 
L 628 4666 
z
" transform="scale(0.015625)"/>
       <path id="DejaVuSans-68" d="M 3513 2113 
L 3513 0 
L 2938 0 
L 2938 2094 
Q 2938 2591 2744 2837 
Q 2550 3084 2163 3084 
Q 1697 3084 1428 2787 
Q 1159 2491 1159 1978 
L 1159 0 
L 581 0 
L 581 4863 
L 1159 4863 
L 1159 2956 
Q 1366 3272 1645 3428 
Q 1925 3584 2291 3584 
Q 2894 3584 3203 3211 
Q 3513 2838 3513 2113 
z
" transform="scale(0.015625)"/>
       <path id="DejaVuSans-61" d="M 2194 1759 
Q 1497 1759 1228 1600 
Q 959 1441 959 1056 
Q 959 750 1161 570 
Q 1363 391 1709 391 
Q 2188 391 2477 730 
Q 2766 1069 2766 1631 
L 2766 1759 
L 2194 1759 
z
M 3341 1997 
L 3341 0 
L 2766 0 
L 2766 531 
Q 2569 213 2275 61 
Q 1981 -91 1556 -91 
Q 1019 -91 701 211 
Q 384 513 384 1019 
Q 384 1609 779 1909 
Q 1175 2209 1959 2209 
L 2766 2209 
L 2766 2266 
Q 2766 2663 2505 2880 
Q 2244 3097 1772 3097 
Q 1472 3097 1187 3025 
Q 903 2953 641 2809 
L 641 3341 
Q 956 3463 1253 3523 
Q 1550 3584 1831 3584 
Q 2591 3584 2966 3190 
Q 3341 2797 3341 1997 
z
" transform="scale(0.015625)"/>
       <path id="DejaVuSans-75" d="M 544 1381 
L 544 3500 
L 1119 3500 
L 1119 1403 
Q 1119 906 1312 657 
Q 1506 409 1894 409 
Q 2359 409 2629 706 
Q 2900 1003 2900 1516 
L 2900 3500 
L 3475 3500 
L 3475 0 
L 2900 0 
L 2900 538 
Q 2691 219 2414 64 
Q 2138 -91 1772 -91 
Q 1169 -91 856 284 
Q 544 659 544 1381 
z
M 1991 3584 
L 1991 3584 
z
" transform="scale(0.015625)"/>
      </defs>
      <use xlink:href="#DejaVuSans-48"/>
      <use xlink:href="#DejaVuSans-65" x="75.195312"/>
      <use xlink:href="#DejaVuSans-70" x="136.71875"/>
      <use xlink:href="#DejaVuSans-68" x="200.195312"/>
      <use xlink:href="#DejaVuSans-61" x="263.574219"/>
      <use xlink:href="#DejaVuSans-65" x="324.853516"/>
      <use xlink:href="#DejaVuSans-73" x="386.376953"/>
      <use xlink:href="#DejaVuSans-74" x="438.476562"/>
      <use xlink:href="#DejaVuSans-75" x="477.685547"/>
      <use xlink:href="#DejaVuSans-73" x="541.064453"/>
     </g>
    </g>
    <g id="line2d_35">
     <path d="M 303.091875 69.248562 
L 313.091875 69.248562 
L 323.091875 69.248562 
" style="fill: none; stroke: #dc143c; stroke-width: 1.5; stroke-linecap: square"/>
    </g>
    <g id="text_23">
     <!-- XAFS Materials -->
     <g transform="translate(331.091875 72.748562)scale(0.1 -0.1)">
      <defs>
       <path id="DejaVuSans-58" d="M 403 4666 
L 1081 4666 
L 2241 2931 
L 3406 4666 
L 4084 4666 
L 2584 2425 
L 4184 0 
L 3506 0 
L 2194 1984 
L 872 0 
L 191 0 
L 1856 2491 
L 403 4666 
z
" transform="scale(0.015625)"/>
       <path id="DejaVuSans-46" d="M 628 4666 
L 3309 4666 
L 3309 4134 
L 1259 4134 
L 1259 2759 
L 3109 2759 
L 3109 2228 
L 1259 2228 
L 1259 0 
L 628 0 
L 628 4666 
z
" transform="scale(0.015625)"/>
       <path id="DejaVuSans-53" d="M 3425 4513 
L 3425 3897 
Q 3066 4069 2747 4153 
Q 2428 4238 2131 4238 
Q 1616 4238 1336 4038 
Q 1056 3838 1056 3469 
Q 1056 3159 1242 3001 
Q 1428 2844 1947 2747 
L 2328 2669 
Q 3034 2534 3370 2195 
Q 3706 1856 3706 1288 
Q 3706 609 3251 259 
Q 2797 -91 1919 -91 
Q 1588 -91 1214 -16 
Q 841 59 441 206 
L 441 856 
Q 825 641 1194 531 
Q 1563 422 1919 422 
Q 2459 422 2753 634 
Q 3047 847 3047 1241 
Q 3047 1584 2836 1778 
Q 2625 1972 2144 2069 
L 1759 2144 
Q 1053 2284 737 2584 
Q 422 2884 422 3419 
Q 422 4038 858 4394 
Q 1294 4750 2059 4750 
Q 2388 4750 2728 4690 
Q 3069 4631 3425 4513 
z
" transform="scale(0.015625)"/>
       <path id="DejaVuSans-6c" d="M 603 4863 
L 1178 4863 
L 1178 0 
L 603 0 
L 603 4863 
z
" transform="scale(0.015625)"/>
      </defs>
      <use xlink:href="#DejaVuSans-58"/>
      <use xlink:href="#DejaVuSans-41" x="68.505859"/>
      <use xlink:href="#DejaVuSans-46" x="136.914062"/>
      <use xlink:href="#DejaVuSans-53" x="192.683594"/>
      <use xlink:href="#DejaVuSans-20" x="256.160156"/>
      <use xlink:href="#DejaVuSans-4d" x="287.947266"/>
      <use xlink:href="#DejaVuSans-61" x="374.226562"/>
      <use xlink:href="#DejaVuSans-74" x="435.505859"/>
      <use xlink:href="#DejaVuSans-65" x="474.714844"/>
      <use xlink:href="#DejaVuSans-72" x="536.238281"/>
      <use xlink:href="#DejaVuSans-69" x="577.351562"/>
      <use xlink:href="#DejaVuSans-61" x="605.134766"/>
      <use xlink:href="#DejaVuSans-6c" x="666.414062"/>
      <use xlink:href="#DejaVuSans-73" x="694.197266"/>
     </g>
    </g>
   </g>
  </g>
 </g>
 <defs>
  <clipPath id="p820d3504df">
   <rect x="57.6" y="41.472" width="357.12" height="266.112"/>
  </clipPath>
 </defs>
</svg>
